<svg xmlns="http://www.w3.org/2000/svg" xmlns:xlink="http://www.w3.org/1999/xlink" width="400" zoomAndPan="magnify" viewBox="0 0 300 299.999988" height="400" preserveAspectRatio="xMidYMid meet" version="1.0"><defs><clipPath id="dcfef152a5"><path d="M 36.746094 30 L 263.246094 30 L 263.246094 282.75 L 36.746094 282.75 Z M 36.746094 30 " clip-rule="nonzero"/></clipPath></defs><g clip-path="url(#dcfef152a5)"><path fill="#0277bd" d="M 263.214844 30 L 36.777344 30 L 56.753906 256.144531 L 149.996094 282.75 L 243.234375 256.144531 Z M 263.214844 30 " fill-opacity="1" fill-rule="nonzero"/></g><path fill="#039be5" d="M 149.996094 49.953125 L 149.996094 262.132812 L 224.585938 240.847656 L 241.234375 49.953125 Z M 149.996094 49.953125 " fill-opacity="1" fill-rule="nonzero"/><path fill="#ffffff" d="M 210.601562 83.210938 L 149.996094 83.210938 L 149.996094 109.816406 L 182.628906 109.816406 L 180.628906 136.421875 L 149.996094 136.421875 L 149.996094 163.027344 L 179.296875 163.027344 L 177.300781 192.957031 L 149.996094 202.269531 L 149.996094 230.203125 L 202.609375 212.910156 L 207.269531 136.421875 Z M 210.601562 83.210938 " fill-opacity="1" fill-rule="nonzero"/><path fill="#eeeeee" d="M 149.996094 83.210938 L 149.996094 109.816406 L 90.722656 109.816406 L 88.722656 83.210938 Z M 119.359375 136.421875 L 120.691406 163.027344 L 149.996094 163.027344 L 149.996094 136.421875 Z M 122.023438 176.328125 L 95.382812 176.328125 L 97.382812 212.910156 L 149.996094 230.203125 L 149.996094 202.269531 L 122.6875 192.957031 Z M 122.023438 176.328125 " fill-opacity="1" fill-rule="nonzero"/></svg>