<svg xmlns="http://www.w3.org/2000/svg" xmlns:xlink="http://www.w3.org/1999/xlink" width="400" zoomAndPan="magnify" viewBox="0 0 300 299.999988" height="400" preserveAspectRatio="xMidYMid meet" version="1.0"><defs><clipPath id="6d87ff3723"><path d="M 50.261719 38 L 249.761719 38 L 249.761719 262 L 50.261719 262 Z M 50.261719 38 " clip-rule="nonzero"/></clipPath><clipPath id="d37f1c9b07"><path d="M 150 94 L 249.761719 94 L 249.761719 206 L 150 206 Z M 150 94 " clip-rule="nonzero"/></clipPath></defs><g clip-path="url(#6d87ff3723)"><path fill="#5c8dbc" d="M 249.453125 103.988281 C 249.453125 100.230469 248.644531 96.910156 247.015625 94.058594 C 245.421875 91.257812 243.03125 88.90625 239.824219 87.050781 C 213.339844 71.78125 186.839844 56.5625 160.363281 41.28125 C 153.226562 37.160156 146.308594 37.308594 139.226562 41.488281 C 128.6875 47.703125 75.914062 77.933594 60.183594 87.039062 C 53.710938 90.789062 50.5625 96.527344 50.558594 103.984375 C 50.550781 134.6875 50.558594 165.386719 50.550781 196.097656 C 50.550781 199.769531 51.320312 203.023438 52.875 205.832031 C 54.472656 208.71875 56.898438 211.136719 60.179688 213.035156 C 75.90625 222.140625 128.679688 252.367188 139.222656 258.582031 C 146.3125 262.769531 153.230469 262.917969 160.367188 258.792969 C 186.84375 243.511719 213.351562 228.289062 239.835938 213.027344 C 243.121094 211.128906 245.542969 208.710938 247.144531 205.824219 C 248.695312 203.023438 249.464844 199.761719 249.464844 196.082031 C 249.464844 196.082031 249.464844 134.699219 249.457031 103.992188 " fill-opacity="1" fill-rule="nonzero"/></g><path fill="#1a4674" d="M 150.308594 149.738281 L 52.875 205.832031 C 54.472656 208.71875 56.898438 211.136719 60.179688 213.035156 C 75.90625 222.140625 128.679688 252.367188 139.222656 258.582031 C 146.3125 262.769531 153.230469 262.917969 160.367188 258.792969 C 186.84375 243.507812 213.351562 228.289062 239.835938 213.027344 C 243.121094 211.128906 245.542969 208.710938 247.144531 205.824219 L 150.3125 149.738281 " fill-opacity="1" fill-rule="nonzero"/><path fill="#1a4674" d="M 121.449219 166.351562 C 127.121094 176.25 137.777344 182.929688 150.003906 182.929688 C 162.308594 182.929688 173.027344 176.164062 178.667969 166.167969 L 150.308594 149.738281 L 121.449219 166.351562 " fill-opacity="1" fill-rule="nonzero"/><g clip-path="url(#d37f1c9b07)"><path fill="#1b598e" d="M 249.453125 103.988281 C 249.453125 100.230469 248.644531 96.910156 247.015625 94.058594 L 150.308594 149.738281 L 247.140625 205.824219 C 248.691406 203.019531 249.460938 199.761719 249.460938 196.078125 C 249.460938 196.078125 249.460938 134.695312 249.453125 103.988281 " fill-opacity="1" fill-rule="nonzero"/></g><path fill="#ffffff" d="M 244.128906 153.746094 L 236.566406 153.746094 L 236.566406 161.308594 L 228.992188 161.308594 L 228.992188 153.746094 L 221.425781 153.746094 L 221.425781 146.183594 L 228.992188 146.183594 L 228.992188 138.617188 L 236.566406 138.617188 L 236.566406 146.183594 L 244.128906 146.183594 L 244.128906 153.746094 " fill-opacity="1" fill-rule="nonzero"/><path fill="#ffffff" d="M 216.515625 153.746094 L 208.953125 153.746094 L 208.953125 161.308594 L 201.386719 161.308594 L 201.386719 153.746094 L 193.820312 153.746094 L 193.820312 146.183594 L 201.386719 146.183594 L 201.386719 138.617188 L 208.953125 138.617188 L 208.953125 146.183594 L 216.515625 146.183594 L 216.515625 153.746094 " fill-opacity="1" fill-rule="nonzero"/><path fill="#ffffff" d="M 178.667969 166.167969 C 173.027344 176.164062 162.308594 182.929688 150.003906 182.929688 C 137.777344 182.929688 127.121094 176.25 121.449219 166.351562 C 118.695312 161.542969 117.113281 155.980469 117.113281 150.035156 C 117.113281 131.871094 131.839844 117.148438 150.003906 117.148438 C 162.152344 117.148438 172.753906 123.738281 178.449219 133.539062 L 207.199219 116.984375 C 195.773438 97.257812 174.441406 83.988281 150.003906 83.988281 C 113.523438 83.988281 83.949219 113.5625 83.949219 150.035156 C 83.949219 162.003906 87.132812 173.222656 92.699219 182.90625 C 104.097656 202.734375 125.492188 216.085938 150.003906 216.085938 C 174.566406 216.085938 195.992188 202.679688 207.371094 182.796875 L 178.667969 166.167969 " fill-opacity="1" fill-rule="nonzero"/></svg>