<svg xmlns="http://www.w3.org/2000/svg" xmlns:xlink="http://www.w3.org/1999/xlink" width="400" zoomAndPan="magnify" viewBox="0 0 300 299.999988" height="400" preserveAspectRatio="xMidYMid meet" version="1.0"><defs><clipPath id="1ca66fb58e"><path d="M 75.082031 64.515625 L 225.082031 64.515625 L 225.082031 235.515625 L 75.082031 235.515625 Z M 75.082031 64.515625 " clip-rule="nonzero"/></clipPath></defs><g clip-path="url(#1ca66fb58e)"><path fill="#e44d26" d="M 88.699219 218.042969 L 75.039062 64.996094 L 225.125 64.996094 L 211.457031 218.023438 L 149.988281 235.039062 Z M 88.699219 218.042969 " fill-opacity="1" fill-rule="nonzero"/></g><path fill="#f16529" d="M 199.746094 208.277344 L 211.433594 77.507812 L 150.082031 77.507812 L 150.082031 222.035156 Z M 199.746094 208.277344 " fill-opacity="1" fill-rule="nonzero"/><path fill="#ebebeb" d="M 150.019531 96.277344 L 102.964844 96.277344 L 108.035156 153.042969 L 150.082031 153.042969 L 150.082031 134.273438 L 125.222656 134.273438 L 123.503906 115.054688 L 150.082031 115.054688 L 150.082031 96.277344 Z M 150.082031 182.960938 L 150.003906 182.980469 L 129.078125 177.339844 L 127.746094 162.367188 L 108.875 162.367188 L 111.507812 191.839844 L 149.996094 202.46875 L 150.082031 202.441406 Z M 150.082031 182.960938 " fill-opacity="1" fill-rule="nonzero"/><path fill="#ffffff" d="M 150.019531 153.042969 L 173.15625 153.042969 L 171.03125 177.382812 L 150.074219 183.03125 L 150.074219 202.558594 L 188.59375 191.894531 L 193.753906 134.261719 L 150.082031 134.261719 Z M 196.636719 101.316406 L 197.082031 96.277344 L 150.007812 96.277344 L 150.007812 115.046875 L 195.390625 115.046875 L 195.765625 110.828125 Z M 196.636719 101.316406 " fill-opacity="1" fill-rule="nonzero"/></svg>