<svg xmlns="http://www.w3.org/2000/svg" xmlns:xlink="http://www.w3.org/1999/xlink" width="400" zoomAndPan="magnify" viewBox="0 0 300 299.999988" height="400" preserveAspectRatio="xMidYMid meet" version="1.0"><defs><clipPath id="c73e626512"><path d="M 42.300781 30 L 257.550781 30 L 257.550781 267.75 L 42.300781 267.75 Z M 42.300781 30 " clip-rule="nonzero"/></clipPath><clipPath id="4e79779f58"><path d="M 42.300781 30 L 255 30 L 255 208 L 42.300781 208 Z M 42.300781 30 " clip-rule="nonzero"/></clipPath><clipPath id="7b1a6c2654"><path d="M 147 88 L 257.550781 88 L 257.550781 209 L 147 209 Z M 147 88 " clip-rule="nonzero"/></clipPath></defs><g clip-path="url(#c73e626512)"><path fill="#283593" d="M 143.742188 32.175781 C 147.570312 30.027344 152.28125 30.027344 156.101562 32.175781 C 175.011719 42.785156 231.917969 74.714844 250.832031 85.324219 C 254.660156 87.464844 257.015625 91.433594 257.015625 95.726562 C 257.015625 116.941406 257.015625 180.800781 257.015625 202.019531 C 257.015625 206.3125 254.660156 210.277344 250.832031 212.425781 C 231.921875 223.035156 175.019531 254.964844 156.101562 265.574219 C 152.273438 267.722656 147.5625 267.722656 143.742188 265.574219 C 124.832031 254.964844 67.929688 223.035156 49.011719 212.425781 C 45.191406 210.277344 42.835938 206.316406 42.835938 202.023438 C 42.835938 180.808594 42.835938 116.949219 42.835938 95.730469 C 42.835938 91.4375 45.191406 87.472656 49.019531 85.324219 C 67.921875 74.714844 124.835938 42.785156 143.742188 32.175781 Z M 143.742188 32.175781 " fill-opacity="1" fill-rule="evenodd"/></g><g clip-path="url(#4e79779f58)"><path fill="#5c6bc0" d="M 44.546875 207.488281 C 43.050781 205.484375 42.835938 203.578125 42.835938 201.015625 C 42.835938 179.921875 42.835938 116.429688 42.835938 95.332031 C 42.835938 91.058594 45.183594 87.117188 49 84.988281 C 67.84375 74.441406 124.554688 42.691406 143.398438 32.140625 C 147.214844 30.003906 152.382812 30.050781 156.199219 32.1875 C 175.039062 42.734375 231.5625 74.210938 250.402344 84.753906 C 251.925781 85.613281 253.085938 86.644531 254.125 88 Z M 44.546875 207.488281 " fill-opacity="1" fill-rule="evenodd"/></g><path fill="#ffffff" d="M 149.925781 70 C 193.476562 70 228.832031 105.34375 228.832031 148.875 C 228.832031 192.40625 193.476562 227.75 149.925781 227.75 C 106.375 227.75 71.015625 192.40625 71.015625 148.875 C 71.015625 105.34375 106.375 70 149.925781 70 Z M 149.925781 109.4375 C 171.699219 109.4375 189.378906 127.105469 189.378906 148.875 C 189.378906 170.640625 171.699219 188.3125 149.925781 188.3125 C 128.152344 188.3125 110.472656 170.640625 110.472656 148.875 C 110.472656 127.105469 128.144531 109.4375 149.925781 109.4375 Z M 149.925781 109.4375 " fill-opacity="1" fill-rule="evenodd"/><g clip-path="url(#7b1a6c2654)"><path fill="#3949ab" d="M 254.113281 88.058594 C 257.019531 90.777344 256.964844 94.878906 256.964844 98.109375 C 256.964844 119.488281 256.785156 180.300781 257.015625 201.679688 C 257.039062 203.914062 256.300781 206.261719 255.195312 208.03125 L 147.632812 148.875 Z M 254.113281 88.058594 " fill-opacity="1" fill-rule="evenodd"/></g></svg>