<svg xmlns="http://www.w3.org/2000/svg" xmlns:xlink="http://www.w3.org/1999/xlink" width="400" zoomAndPan="magnify" viewBox="0 0 300 299.999988" height="400" preserveAspectRatio="xMidYMid meet" version="1.0"><defs><clipPath id="fb1ce14994"><path d="M 31.410156 251 L 53 251 L 53 254 L 31.410156 254 Z M 31.410156 251 " clip-rule="nonzero"/></clipPath><clipPath id="dd9123164f"><path d="M 247 251 L 268.410156 251 L 268.410156 254 L 247 254 Z M 247 251 " clip-rule="nonzero"/></clipPath><clipPath id="627b94e0aa"><path d="M 31.410156 46 L 268.410156 46 L 268.410156 239 L 31.410156 239 Z M 31.410156 46 " clip-rule="nonzero"/></clipPath></defs><path fill="#9e9e9e" d="M 84.59375 162.347656 C 83.066406 162.347656 81.5625 161.636719 80.597656 160.304688 L 61.628906 134.046875 C 61.019531 133.203125 60.691406 132.195312 60.691406 131.152344 L 60.691406 83.046875 C 60.691406 80.320312 62.898438 78.109375 65.621094 78.109375 C 68.34375 78.109375 70.550781 80.320312 70.550781 83.046875 L 70.550781 129.554688 L 88.585938 154.519531 C 90.179688 156.730469 89.6875 159.8125 87.480469 161.410156 C 86.605469 162.042969 85.597656 162.347656 84.59375 162.347656 " fill-opacity="1" fill-rule="nonzero"/><path fill="#9e9e9e" d="M 149.910156 141.1875 C 147.1875 141.1875 144.980469 138.980469 144.980469 136.253906 L 144.980469 83.046875 C 144.980469 80.320312 147.1875 78.109375 149.910156 78.109375 C 152.632812 78.109375 154.835938 80.320312 154.835938 83.046875 L 154.835938 136.253906 C 154.835938 138.980469 152.632812 141.1875 149.910156 141.1875 " fill-opacity="1" fill-rule="nonzero"/><path fill="#9e9e9e" d="M 215.410156 161.964844 C 214.414062 161.964844 213.398438 161.660156 212.527344 161.027344 C 210.320312 159.433594 209.824219 156.347656 211.421875 154.136719 L 229.175781 129.554688 L 229.175781 83.046875 C 229.175781 80.320312 231.386719 78.109375 234.105469 78.109375 C 236.828125 78.109375 239.035156 80.320312 239.035156 83.046875 L 239.035156 131.152344 C 239.035156 132.195312 238.707031 133.203125 238.105469 134.046875 L 219.410156 159.921875 C 218.449219 161.253906 216.9375 161.964844 215.410156 161.964844 " fill-opacity="1" fill-rule="nonzero"/><path fill="#f46275" d="M 243.179688 186.734375 C 223.265625 217.132812 188.925781 237.207031 149.910156 237.207031 C 110.890625 237.207031 76.546875 217.132812 56.644531 186.734375 C 76.546875 156.328125 110.890625 136.253906 149.910156 136.253906 C 188.933594 136.253906 223.277344 156.328125 243.179688 186.734375 " fill-opacity="1" fill-rule="nonzero"/><path fill="#f48875" d="M 149.910156 136.253906 C 148.292969 136.253906 146.691406 136.304688 145.097656 136.367188 C 182.125 137.945312 214.476562 157.585938 233.558594 186.734375 C 214.464844 215.875 182.113281 235.515625 145.09375 237.089844 C 146.691406 237.15625 148.292969 237.207031 149.910156 237.207031 C 188.925781 237.207031 223.265625 217.132812 243.179688 186.734375 C 223.277344 156.328125 188.933594 136.253906 149.910156 136.253906 " fill-opacity="1" fill-rule="nonzero"/><path fill="#f43075" d="M 66.269531 186.734375 C 85.347656 157.585938 117.699219 137.945312 154.71875 136.367188 C 153.125 136.304688 151.523438 136.253906 149.910156 136.253906 C 110.890625 136.253906 76.546875 156.328125 56.644531 186.734375 C 76.546875 217.132812 110.890625 237.207031 149.910156 237.207031 C 151.523438 237.207031 153.125 237.15625 154.71875 237.089844 C 117.699219 235.515625 85.347656 215.875 66.269531 186.734375 " fill-opacity="1" fill-rule="nonzero"/><path fill="#63bce7" d="M 149.910156 152.699219 L 149.910156 186.726562 L 115.921875 186.726562 C 115.921875 205.523438 131.136719 220.757812 149.910156 220.757812 C 168.6875 220.757812 183.90625 205.523438 183.90625 186.726562 C 183.90625 167.9375 168.6875 152.699219 149.910156 152.699219 " fill-opacity="1" fill-rule="nonzero"/><path fill="#f8af23" d="M 149.910156 152.699219 C 131.136719 152.699219 115.921875 167.9375 115.921875 186.726562 L 149.910156 186.726562 L 149.910156 152.699219 " fill-opacity="1" fill-rule="nonzero"/><path fill="#63bce7" d="M 252.488281 83.046875 L 215.730469 83.046875 C 213.011719 83.046875 210.804688 80.839844 210.804688 78.113281 L 210.804688 52.605469 C 210.804688 49.886719 213.011719 47.675781 215.730469 47.675781 L 252.488281 47.675781 C 255.207031 47.675781 257.414062 49.886719 257.414062 52.605469 L 257.414062 78.113281 C 257.414062 80.839844 255.207031 83.046875 252.488281 83.046875 " fill-opacity="1" fill-rule="nonzero"/><path fill="#63e2e7" d="M 252.488281 47.675781 L 242.863281 47.675781 C 245.585938 47.675781 247.789062 49.886719 247.789062 52.605469 L 247.789062 78.113281 C 247.789062 80.839844 245.585938 83.046875 242.863281 83.046875 L 252.488281 83.046875 C 255.207031 83.046875 257.414062 80.839844 257.414062 78.113281 L 257.414062 52.605469 C 257.414062 49.886719 255.207031 47.675781 252.488281 47.675781 " fill-opacity="1" fill-rule="nonzero"/><path fill="#f46275" d="M 224.125 76.140625 L 217.351562 76.140625 L 217.351562 60.339844 L 224.125 60.339844 L 224.125 76.140625 " fill-opacity="1" fill-rule="nonzero"/><path fill="#f46275" d="M 237.496094 76.140625 L 230.722656 76.140625 L 230.722656 57.542969 L 237.496094 57.542969 L 237.496094 76.140625 " fill-opacity="1" fill-rule="nonzero"/><path fill="#f46275" d="M 250.867188 76.140625 L 244.09375 76.140625 L 244.09375 54.582031 L 250.867188 54.582031 L 250.867188 76.140625 " fill-opacity="1" fill-rule="nonzero"/><path fill="#f8af23" d="M 168.289062 83.046875 L 131.535156 83.046875 C 128.816406 83.046875 126.609375 80.839844 126.609375 78.113281 L 126.609375 52.605469 C 126.609375 49.886719 128.816406 47.675781 131.535156 47.675781 L 168.289062 47.675781 C 171.007812 47.675781 173.214844 49.886719 173.214844 52.605469 L 173.214844 78.113281 C 173.214844 80.839844 171.007812 83.046875 168.289062 83.046875 " fill-opacity="1" fill-rule="nonzero"/><path fill="#f87023" d="M 136.230469 78.113281 L 136.230469 52.605469 C 136.230469 49.886719 138.4375 47.675781 141.15625 47.675781 L 131.535156 47.675781 C 128.816406 47.675781 126.609375 49.886719 126.609375 52.605469 L 126.609375 78.113281 C 126.609375 80.839844 128.816406 83.046875 131.535156 83.046875 L 141.15625 83.046875 C 138.4375 83.046875 136.230469 80.839844 136.230469 78.113281 " fill-opacity="1" fill-rule="nonzero"/><path fill="#9e9e9e" d="M 165.242188 72.589844 C 165.242188 74.304688 163.839844 75.707031 162.128906 75.707031 L 137.796875 75.707031 C 136.082031 75.707031 134.679688 74.304688 134.679688 72.589844 L 134.679688 58.136719 C 134.679688 56.421875 136.082031 55.011719 137.796875 55.011719 L 162.128906 55.011719 C 163.839844 55.011719 165.242188 56.421875 165.242188 58.136719 L 165.242188 72.589844 " fill-opacity="1" fill-rule="nonzero"/><path fill="#f46275" d="M 135.625 74.8125 C 136.1875 75.367188 136.953125 75.707031 137.796875 75.707031 L 162.128906 75.707031 C 162.972656 75.707031 163.738281 75.367188 164.300781 74.8125 L 149.960938 61.242188 L 135.625 74.8125 " fill-opacity="1" fill-rule="nonzero"/><path fill="#63bce7" d="M 164.300781 55.90625 C 163.738281 55.355469 162.972656 55.011719 162.128906 55.011719 L 137.796875 55.011719 C 136.953125 55.011719 136.1875 55.355469 135.625 55.90625 L 149.960938 69.480469 L 164.300781 55.90625 " fill-opacity="1" fill-rule="nonzero"/><path fill="#f46275" d="M 84 83.046875 L 47.246094 83.046875 C 44.523438 83.046875 42.320312 80.839844 42.320312 78.113281 L 42.320312 52.605469 C 42.320312 49.886719 44.523438 47.675781 47.246094 47.675781 L 84 47.675781 C 86.722656 47.675781 88.921875 49.886719 88.921875 52.605469 L 88.921875 78.113281 C 88.921875 80.839844 86.722656 83.046875 84 83.046875 " fill-opacity="1" fill-rule="nonzero"/><path fill="#f43075" d="M 51.9375 78.113281 L 51.9375 52.605469 C 51.9375 49.886719 54.144531 47.675781 56.863281 47.675781 L 47.246094 47.675781 C 44.523438 47.675781 42.320312 49.886719 42.320312 52.605469 L 42.320312 78.113281 C 42.320312 80.839844 44.523438 83.046875 47.246094 83.046875 L 56.863281 83.046875 C 54.144531 83.046875 51.9375 80.839844 51.9375 78.113281 " fill-opacity="1" fill-rule="nonzero"/><path fill="#9e9e9e" d="M 65.621094 55.871094 L 65.621094 65.359375 L 56.144531 65.359375 C 56.144531 70.605469 60.386719 74.851562 65.621094 74.851562 C 70.855469 74.851562 75.101562 70.605469 75.101562 65.359375 C 75.101562 60.121094 70.855469 55.871094 65.621094 55.871094 " fill-opacity="1" fill-rule="nonzero"/><path fill="#f8af23" d="M 65.621094 55.871094 C 60.386719 55.871094 56.144531 60.121094 56.144531 65.359375 L 65.621094 65.359375 L 65.621094 55.871094 " fill-opacity="1" fill-rule="nonzero"/><path fill="#321f7a" d="M 149.910156 219.277344 C 132.484375 219.277344 118.210938 205.472656 117.433594 188.207031 L 149.910156 188.207031 C 150.726562 188.207031 151.390625 187.550781 151.390625 186.726562 L 151.390625 154.214844 C 168.636719 154.992188 182.425781 169.277344 182.425781 186.726562 C 182.425781 204.679688 167.839844 219.277344 149.910156 219.277344 Z M 148.433594 154.214844 L 148.433594 185.246094 L 117.433594 185.246094 C 118.1875 168.476562 131.679688 154.96875 148.433594 154.214844 Z M 149.910156 151.21875 C 130.351562 151.21875 114.445312 167.148438 114.445312 186.726562 C 114.445312 206.308594 130.351562 222.238281 149.910156 222.238281 C 169.472656 222.238281 185.382812 206.308594 185.382812 186.726562 C 185.382812 167.148438 169.472656 151.21875 149.910156 151.21875 " fill-opacity="1" fill-rule="nonzero"/><path fill="#321f7a" d="M 222.644531 74.660156 L 218.828125 74.660156 L 218.828125 61.820312 L 222.644531 61.820312 Z M 224.125 58.859375 L 217.351562 58.859375 C 216.535156 58.859375 215.871094 59.523438 215.871094 60.339844 L 215.871094 76.140625 C 215.871094 76.957031 216.535156 77.621094 217.351562 77.621094 L 224.125 77.621094 C 224.941406 77.621094 225.605469 76.957031 225.605469 76.140625 L 225.605469 60.339844 C 225.605469 59.523438 224.941406 58.859375 224.125 58.859375 " fill-opacity="1" fill-rule="nonzero"/><path fill="#321f7a" d="M 236.015625 74.660156 L 232.199219 74.660156 L 232.199219 59.023438 L 236.015625 59.023438 Z M 237.496094 56.0625 L 230.722656 56.0625 C 229.90625 56.0625 229.242188 56.722656 229.242188 57.542969 L 229.242188 76.140625 C 229.242188 76.957031 229.90625 77.621094 230.722656 77.621094 L 237.496094 77.621094 C 238.3125 77.621094 238.972656 76.957031 238.972656 76.140625 L 238.972656 57.542969 C 238.972656 56.722656 238.3125 56.0625 237.496094 56.0625 " fill-opacity="1" fill-rule="nonzero"/><path fill="#321f7a" d="M 249.386719 74.660156 L 245.570312 74.660156 L 245.570312 56.0625 L 249.386719 56.0625 Z M 250.867188 53.101562 L 244.09375 53.101562 C 243.277344 53.101562 242.613281 53.761719 242.613281 54.582031 L 242.613281 76.140625 C 242.613281 76.957031 243.277344 77.621094 244.09375 77.621094 L 250.867188 77.621094 C 251.683594 77.621094 252.34375 76.957031 252.34375 76.140625 L 252.34375 54.582031 C 252.34375 53.761719 251.683594 53.101562 250.867188 53.101562 " fill-opacity="1" fill-rule="nonzero"/><path fill="#321f7a" d="M 156.464844 65.359375 L 163.765625 58.453125 L 163.765625 72.273438 Z M 145.609375 67.398438 L 148.945312 70.558594 C 149.230469 70.828125 149.597656 70.960938 149.960938 70.960938 C 150.328125 70.960938 150.695312 70.828125 150.980469 70.558594 L 154.3125 67.398438 L 161.527344 74.226562 L 138.398438 74.226562 Z M 149.960938 67.445312 L 138.394531 56.492188 L 161.527344 56.492188 Z M 136.160156 58.453125 L 143.457031 65.359375 L 136.160156 72.269531 Z M 162.128906 53.53125 L 137.796875 53.53125 C 135.261719 53.53125 133.203125 55.597656 133.203125 58.136719 L 133.203125 72.589844 C 133.203125 75.125 135.261719 77.1875 137.796875 77.1875 L 162.128906 77.1875 C 164.660156 77.1875 166.722656 75.125 166.722656 72.589844 L 166.722656 58.136719 C 166.722656 55.597656 164.660156 53.53125 162.128906 53.53125 " fill-opacity="1" fill-rule="nonzero"/><path fill="#321f7a" d="M 65.621094 73.371094 C 61.714844 73.371094 58.453125 70.554688 57.757812 66.839844 L 65.621094 66.839844 C 66.4375 66.839844 67.101562 66.179688 67.101562 65.359375 L 67.101562 57.488281 C 70.808594 58.1875 73.625 61.453125 73.625 65.359375 C 73.625 69.777344 70.035156 73.371094 65.621094 73.371094 Z M 64.140625 57.488281 L 64.140625 63.878906 L 57.757812 63.878906 C 58.363281 60.648438 60.914062 58.09375 64.140625 57.488281 Z M 65.621094 54.390625 C 59.578125 54.390625 54.664062 59.3125 54.664062 65.359375 C 54.664062 71.410156 59.578125 76.332031 65.621094 76.332031 C 71.664062 76.332031 76.582031 71.410156 76.582031 65.359375 C 76.582031 59.3125 71.664062 54.390625 65.621094 54.390625 " fill-opacity="1" fill-rule="nonzero"/><g clip-path="url(#fb1ce14994)"><path fill="#321f7a" d="M 50.660156 251.023438 L 32.910156 251.023438 C 32.09375 251.023438 31.433594 251.6875 31.433594 252.503906 C 31.433594 253.320312 32.09375 253.984375 32.910156 253.984375 L 50.660156 253.984375 C 51.476562 253.984375 52.140625 253.320312 52.140625 252.503906 C 52.140625 251.6875 51.476562 251.023438 50.660156 251.023438 " fill-opacity="1" fill-rule="nonzero"/></g><g clip-path="url(#dd9123164f)"><path fill="#321f7a" d="M 266.914062 251.023438 L 249.164062 251.023438 C 248.347656 251.023438 247.683594 251.6875 247.683594 252.503906 C 247.683594 253.320312 248.347656 253.984375 249.164062 253.984375 L 266.914062 253.984375 C 267.730469 253.984375 268.390625 253.320312 268.390625 252.503906 C 268.390625 251.6875 267.730469 251.023438 266.914062 251.023438 " fill-opacity="1" fill-rule="nonzero"/></g><path fill="#321f7a" d="M 239.113281 251.023438 L 60.710938 251.023438 C 59.894531 251.023438 59.234375 251.6875 59.234375 252.503906 C 59.234375 253.320312 59.894531 253.984375 60.710938 253.984375 L 239.113281 253.984375 C 239.929688 253.984375 240.589844 253.320312 240.589844 252.503906 C 240.589844 251.6875 239.929688 251.023438 239.113281 251.023438 " fill-opacity="1" fill-rule="nonzero"/><g clip-path="url(#627b94e0aa)"><path fill="#321f7a" d="M 58.421875 186.734375 C 78.898438 156.035156 113.023438 137.734375 149.910156 137.734375 C 186.796875 137.734375 220.925781 156.035156 241.402344 186.734375 C 220.914062 217.429688 186.78125 235.726562 149.910156 235.726562 C 113.027344 235.726562 78.898438 217.429688 58.421875 186.734375 Z M 62.824219 133.179688 C 62.398438 132.585938 62.171875 131.886719 62.171875 131.152344 L 62.171875 84.527344 L 69.070312 84.527344 L 69.070312 129.554688 C 69.070312 129.867188 69.167969 130.167969 69.351562 130.425781 L 86.542969 154.21875 C 84.640625 155.511719 82.777344 156.859375 80.953125 158.269531 Z M 43.796875 78.113281 L 43.796875 52.605469 C 43.796875 50.707031 45.34375 49.15625 47.246094 49.15625 L 84 49.15625 C 85.902344 49.15625 87.445312 50.707031 87.445312 52.605469 L 87.445312 78.113281 C 87.445312 80.019531 85.902344 81.566406 84 81.566406 L 47.246094 81.566406 C 45.34375 81.566406 43.796875 80.019531 43.796875 78.113281 Z M 146.457031 84.527344 L 153.359375 84.527344 L 153.359375 134.828125 C 152.210938 134.796875 151.058594 134.773438 149.910156 134.773438 C 148.753906 134.773438 147.605469 134.796875 146.457031 134.828125 Z M 128.089844 78.113281 L 128.089844 52.605469 C 128.089844 50.707031 129.636719 49.15625 131.535156 49.15625 L 168.289062 49.15625 C 170.191406 49.15625 171.734375 50.707031 171.734375 52.605469 L 171.734375 78.113281 C 171.734375 80.019531 170.191406 81.566406 168.289062 81.566406 L 131.535156 81.566406 C 129.636719 81.566406 128.089844 80.019531 128.089844 78.113281 Z M 230.378906 130.425781 C 230.558594 130.167969 230.65625 129.867188 230.65625 129.554688 L 230.65625 84.527344 L 237.558594 84.527344 L 237.558594 131.152344 C 237.558594 131.886719 237.332031 132.585938 236.902344 133.179688 L 218.808594 158.226562 C 216.984375 156.816406 215.121094 155.464844 213.21875 154.175781 Z M 212.28125 78.113281 L 212.28125 52.605469 C 212.28125 50.707031 213.832031 49.15625 215.730469 49.15625 L 252.488281 49.15625 C 254.386719 49.15625 255.929688 50.707031 255.929688 52.605469 L 255.929688 78.113281 C 255.929688 80.019531 254.386719 81.566406 252.488281 81.566406 L 215.730469 81.566406 C 213.832031 81.566406 212.28125 80.019531 212.28125 78.113281 Z M 32.910156 238.6875 L 266.914062 238.6875 C 267.730469 238.6875 268.390625 238.023438 268.390625 237.207031 C 268.390625 236.390625 267.730469 235.726562 266.914062 235.726562 L 175.628906 235.726562 C 203.574219 229.210938 228.257812 212.210938 244.414062 187.546875 C 244.738281 187.054688 244.738281 186.414062 244.414062 185.921875 C 237.917969 176.003906 230.042969 167.320312 221.132812 160.058594 L 239.300781 134.910156 C 240.097656 133.8125 240.515625 132.507812 240.515625 131.152344 L 240.515625 84.527344 L 252.488281 84.527344 C 256.019531 84.527344 258.886719 81.648438 258.886719 78.113281 L 258.886719 52.605469 C 258.886719 49.070312 256.019531 46.195312 252.488281 46.195312 L 215.730469 46.195312 C 212.199219 46.195312 209.324219 49.070312 209.324219 52.605469 L 209.324219 78.113281 C 209.324219 81.648438 212.199219 84.527344 215.730469 84.527344 L 227.699219 84.527344 L 227.699219 129.078125 L 210.742188 152.546875 C 194.613281 142.21875 175.941406 136.066406 156.316406 134.964844 L 156.316406 84.527344 L 168.289062 84.527344 C 171.820312 84.527344 174.691406 81.648438 174.691406 78.113281 L 174.691406 52.605469 C 174.691406 49.070312 171.820312 46.195312 168.289062 46.195312 L 131.535156 46.195312 C 128.003906 46.195312 125.132812 49.070312 125.132812 52.605469 L 125.132812 78.113281 C 125.132812 81.648438 128.003906 84.527344 131.535156 84.527344 L 143.5 84.527344 L 143.5 134.964844 C 123.847656 136.066406 105.15625 142.234375 89.015625 152.589844 L 72.03125 129.078125 L 72.03125 84.527344 L 84 84.527344 C 87.53125 84.527344 90.402344 81.648438 90.402344 78.113281 L 90.402344 52.605469 C 90.402344 49.070312 87.53125 46.195312 84 46.195312 L 47.246094 46.195312 C 43.714844 46.195312 40.839844 49.070312 40.839844 52.605469 L 40.839844 78.113281 C 40.839844 81.648438 43.714844 84.527344 47.246094 84.527344 L 59.214844 84.527344 L 59.214844 131.152344 C 59.214844 132.511719 59.632812 133.8125 60.429688 134.914062 L 78.628906 160.109375 C 69.746094 167.359375 61.890625 176.019531 55.410156 185.921875 C 55.085938 186.414062 55.089844 187.054688 55.410156 187.546875 C 71.558594 212.210938 96.238281 229.210938 124.183594 235.726562 L 32.910156 235.726562 C 32.09375 235.726562 31.433594 236.390625 31.433594 237.207031 C 31.433594 238.023438 32.09375 238.6875 32.910156 238.6875 " fill-opacity="1" fill-rule="nonzero"/></g></svg>