<svg xmlns="http://www.w3.org/2000/svg" xmlns:xlink="http://www.w3.org/1999/xlink" width="400" zoomAndPan="magnify" viewBox="0 0 300 299.999988" height="400" preserveAspectRatio="xMidYMid meet" version="1.0"><defs><clipPath id="339de5fb64"><path d="M 3.519531 100 L 193 100 L 193 210 L 3.519531 210 Z M 3.519531 100 " clip-rule="nonzero"/></clipPath></defs><g clip-path="url(#339de5fb64)"><path fill="#00acd7" d="M 26.109375 133.4375 C 25.535156 133.4375 25.394531 133.152344 25.679688 132.726562 L 28.679688 128.875 C 28.96875 128.449219 29.679688 128.164062 30.253906 128.164062 L 81.277344 128.164062 C 81.847656 128.164062 81.988281 128.589844 81.703125 129.019531 L 79.273438 132.726562 C 78.988281 133.152344 78.273438 133.582031 77.84375 133.582031 L 26.105469 133.4375 Z M 4.527344 146.554688 C 3.957031 146.554688 3.816406 146.269531 4.101562 145.839844 L 7.101562 141.992188 C 7.386719 141.566406 8.101562 141.28125 8.671875 141.28125 L 73.84375 141.28125 C 74.417969 141.28125 74.703125 141.707031 74.558594 142.136719 L 73.417969 145.554688 C 73.273438 146.128906 72.703125 146.410156 72.128906 146.410156 Z M 39.117188 159.671875 C 38.542969 159.671875 38.402344 159.242188 38.6875 158.8125 L 40.6875 155.25 C 40.976562 154.824219 41.546875 154.394531 42.117188 154.394531 L 70.699219 154.394531 C 71.273438 154.394531 71.558594 154.824219 71.558594 155.390625 L 71.273438 158.8125 C 71.273438 159.382812 70.699219 159.808594 70.273438 159.808594 L 39.113281 159.667969 Z M 187.472656 130.871094 L 163.460938 137.144531 C 161.316406 137.714844 161.175781 137.855469 159.316406 135.71875 C 157.171875 133.292969 155.601562 131.714844 152.597656 130.300781 C 143.59375 125.882812 134.875 127.164062 126.730469 132.441406 C 117.011719 138.714844 112.007812 147.980469 112.152344 159.527344 C 112.292969 170.933594 120.152344 180.34375 131.445312 181.914062 C 141.164062 183.195312 149.308594 179.773438 155.742188 172.503906 C 157.03125 170.9375 158.175781 169.222656 159.601562 167.226562 L 132.011719 167.226562 C 129.011719 167.226562 128.296875 165.375 129.296875 162.949219 C 131.15625 158.53125 134.585938 151.117188 136.585938 147.410156 C 137.015625 146.554688 138.015625 145.128906 140.160156 145.128906 L 192.183594 145.128906 C 191.898438 148.980469 191.898438 152.828125 191.328125 156.679688 C 189.753906 166.941406 185.894531 176.351562 179.609375 184.621094 C 169.316406 198.164062 155.882812 206.578125 138.875 208.859375 C 124.867188 210.710938 111.863281 208.003906 100.425781 199.449219 C 89.84375 191.464844 83.851562 180.914062 82.28125 167.796875 C 80.421875 152.257812 84.996094 138.289062 94.429688 126.027344 C 104.578125 112.765625 118.011719 104.355469 134.449219 101.363281 C 147.882812 98.9375 160.746094 100.507812 172.324219 108.347656 C 179.898438 113.335938 185.328125 120.179688 188.902344 128.449219 C 189.761719 129.734375 189.191406 130.445312 187.476562 130.875 Z M 187.472656 130.871094 " fill-opacity="1" fill-rule="nonzero"/></g><path fill="#00acd7" d="M 234.78125 209.710938 C 221.773438 209.425781 209.910156 205.707031 199.90625 197.164062 C 191.472656 189.890625 186.183594 180.625 184.472656 169.648438 C 181.898438 153.535156 186.328125 139.28125 196.046875 126.59375 C 206.484375 112.90625 219.058594 105.777344 236.066406 102.785156 C 250.644531 100.21875 264.367188 101.644531 276.800781 110.054688 C 288.089844 117.753906 295.09375 128.160156 296.953125 141.847656 C 299.382812 161.09375 293.808594 176.777344 280.515625 190.175781 C 271.082031 199.726562 259.507812 205.71875 246.214844 208.425781 C 242.355469 209.136719 238.496094 209.28125 234.78125 209.710938 Z M 268.796875 152.113281 C 268.652344 150.261719 268.652344 148.835938 268.367188 147.410156 C 265.792969 133.292969 252.789062 125.3125 239.210938 128.449219 C 225.917969 131.441406 217.34375 139.851562 214.199219 153.253906 C 211.625 164.375 217.058594 175.640625 227.347656 180.199219 C 235.207031 183.621094 243.070312 183.195312 250.644531 179.34375 C 261.9375 173.511719 268.082031 164.375 268.796875 152.113281 Z M 268.796875 152.113281 " fill-opacity="1" fill-rule="nonzero"/></svg>