<svg xmlns="http://www.w3.org/2000/svg" xmlns:xlink="http://www.w3.org/1999/xlink" width="400" zoomAndPan="magnify" viewBox="0 0 300 299.999988" height="400" preserveAspectRatio="xMidYMid meet" version="1.0"><defs><clipPath id="043833622b"><path d="M 115 21.523438 L 182 21.523438 L 182 162 L 115 162 Z M 115 21.523438 " clip-rule="nonzero"/></clipPath></defs><path fill="#5382a1" d="M 115.320312 218.78125 C 115.320312 218.78125 105.589844 224.453125 122.246094 226.371094 C 142.425781 228.675781 152.734375 228.34375 174.96875 224.128906 C 174.96875 224.128906 180.816406 227.796875 188.984375 230.980469 C 139.136719 252.386719 76.167969 229.742188 115.320312 218.78125 " fill-opacity="1" fill-rule="nonzero"/><path fill="#5382a1" d="M 109.226562 190.855469 C 109.226562 190.855469 98.3125 198.949219 114.980469 200.675781 C 136.535156 202.898438 153.558594 203.085938 183.011719 197.398438 C 183.011719 197.398438 187.089844 201.542969 193.496094 203.800781 C 133.226562 221.453125 66.097656 205.195312 109.226562 190.855469 " fill-opacity="1" fill-rule="nonzero"/><path fill="#e76f00" d="M 160.578125 143.472656 C 172.859375 157.648438 157.347656 170.394531 157.347656 170.394531 C 157.347656 170.394531 188.542969 154.265625 174.21875 134.0625 C 160.835938 115.230469 150.582031 105.871094 206.117188 73.605469 C 206.117188 73.605469 118.945312 95.414062 160.578125 143.472656 " fill-opacity="1" fill-rule="nonzero"/><path fill="#5382a1" d="M 226.503906 239.4375 C 226.503906 239.4375 233.707031 245.382812 218.578125 249.984375 C 189.804688 258.714844 98.816406 261.351562 73.542969 250.332031 C 64.460938 246.375 81.496094 240.878906 86.855469 239.71875 C 92.445312 238.507812 95.640625 238.734375 95.640625 238.734375 C 85.535156 231.601562 30.332031 252.734375 67.597656 258.789062 C 169.230469 275.296875 252.867188 251.351562 226.503906 239.4375 " fill-opacity="1" fill-rule="nonzero"/><path fill="#5382a1" d="M 120 161.914062 C 120 161.914062 73.71875 172.929688 103.609375 176.925781 C 116.230469 178.621094 141.394531 178.238281 164.824219 176.265625 C 183.980469 174.648438 203.214844 171.207031 203.214844 171.207031 C 203.214844 171.207031 196.460938 174.109375 191.574219 177.449219 C 144.570312 189.835938 53.785156 184.074219 79.917969 171.40625 C 102.027344 160.703125 120 161.914062 120 161.914062 " fill-opacity="1" fill-rule="nonzero"/><path fill="#5382a1" d="M 203.023438 208.402344 C 250.796875 183.535156 228.703125 159.632812 213.285156 162.855469 C 209.511719 163.644531 207.820312 164.324219 207.820312 164.324219 C 207.820312 164.324219 209.222656 162.121094 211.90625 161.167969 C 242.40625 150.429688 265.867188 192.855469 202.054688 209.65625 C 202.054688 209.65625 202.800781 208.992188 203.023438 208.402344 " fill-opacity="1" fill-rule="nonzero"/><g clip-path="url(#043833622b)"><path fill="#e76f00" d="M 174.21875 21.503906 C 174.21875 21.503906 200.679688 48.019531 149.121094 88.789062 C 107.78125 121.492188 139.699219 140.140625 149.105469 161.449219 C 124.972656 139.640625 107.265625 120.4375 119.144531 102.570312 C 136.585938 76.339844 184.894531 63.621094 174.21875 21.503906 " fill-opacity="1" fill-rule="nonzero"/></g><path fill="#5382a1" d="M 124.691406 275.796875 C 170.554688 278.738281 240.96875 274.167969 242.632812 252.429688 C 242.632812 252.429688 239.425781 260.664062 204.738281 267.207031 C 165.597656 274.585938 117.320312 273.730469 88.691406 268.996094 C 88.691406 268.996094 94.550781 273.855469 124.691406 275.796875 " fill-opacity="1" fill-rule="nonzero"/></svg>