<svg xmlns="http://www.w3.org/2000/svg" xmlns:xlink="http://www.w3.org/1999/xlink" width="400" zoomAndPan="magnify" viewBox="0 0 300 299.999988" height="400" preserveAspectRatio="xMidYMid meet" version="1.0"><defs><clipPath id="96f6fa6820"><path d="M 0 0 L 300 0 L 300 297.300781 L 0 297.300781 Z M 0 0 " clip-rule="nonzero"/></clipPath></defs><g clip-path="url(#96f6fa6820)"><path fill="#f7df1e" d="M 0 -2.699219 L 300 -2.699219 L 300 297.300781 L 0 297.300781 Z M 0 -2.699219 " fill-opacity="1" fill-rule="nonzero"/></g><path fill="#000000" d="M 78.882812 248 L 101.839844 234.113281 C 106.269531 241.964844 110.296875 248.609375 119.964844 248.609375 C 129.222656 248.609375 135.070312 244.976562 135.070312 230.890625 L 135.070312 135.03125 L 163.253906 135.03125 L 163.253906 231.289062 C 163.253906 260.480469 146.144531 273.78125 121.171875 273.78125 C 98.617188 273.78125 85.527344 262.097656 78.878906 248 " fill-opacity="1" fill-rule="nonzero"/><path fill="#000000" d="M 178.570312 244.976562 L 201.527344 231.6875 C 207.574219 241.554688 215.425781 248.808594 229.3125 248.808594 C 240.996094 248.808594 248.449219 242.972656 248.449219 234.910156 C 248.449219 225.242188 240.796875 221.820312 227.90625 216.183594 L 220.863281 213.160156 C 200.519531 204.5 187.03125 193.636719 187.03125 170.667969 C 187.03125 149.527344 203.132812 133.414062 228.316406 133.414062 C 246.234375 133.414062 259.125 139.660156 268.382812 155.972656 L 246.433594 170.070312 C 241.605469 161.410156 236.367188 157.988281 228.316406 157.988281 C 220.054688 157.988281 214.816406 163.226562 214.816406 170.070312 C 214.816406 178.53125 220.054688 181.953125 232.136719 187.191406 L 239.179688 190.203125 C 263.144531 200.480469 276.644531 210.945312 276.644531 234.511719 C 276.644531 259.882812 256.710938 273.78125 229.921875 273.78125 C 203.742188 273.78125 186.832031 261.289062 178.570312 244.976562 " fill-opacity="1" fill-rule="nonzero"/></svg>