<svg xmlns="http://www.w3.org/2000/svg" xmlns:xlink="http://www.w3.org/1999/xlink" width="400" zoomAndPan="magnify" viewBox="0 0 300 299.999988" height="400" preserveAspectRatio="xMidYMid meet" version="1.0"><defs><clipPath id="12d72fe2e8"><path d="M 6.339844 87.742188 L 293.589844 87.742188 L 293.589844 239.242188 L 6.339844 239.242188 Z M 6.339844 87.742188 " clip-rule="nonzero"/></clipPath><clipPath id="11ad167e4b"><path d="M 293.589844 163.492188 C 293.589844 164.730469 293.53125 165.964844 293.417969 167.199219 C 293.300781 168.433594 293.128906 169.667969 292.898438 170.898438 C 292.667969 172.128906 292.378906 173.355469 292.035156 174.578125 C 291.691406 175.800781 291.289062 177.019531 290.828125 178.230469 C 290.371094 179.441406 289.855469 180.648438 289.285156 181.847656 C 288.714844 183.046875 288.085938 184.238281 287.40625 185.421875 C 286.722656 186.605469 285.984375 187.777344 285.191406 188.941406 C 284.402344 190.105469 283.554688 191.257812 282.65625 192.402344 C 281.757812 193.542969 280.804688 194.671875 279.800781 195.789062 C 278.792969 196.90625 277.738281 198.011719 276.628906 199.101562 C 275.523438 200.191406 274.363281 201.269531 273.15625 202.328125 C 271.945312 203.386719 270.691406 204.433594 269.382812 205.460938 C 268.078125 206.488281 266.726562 207.5 265.324219 208.492188 C 263.925781 209.484375 262.480469 210.460938 260.988281 211.414062 C 259.496094 212.371094 257.960938 213.304688 256.382812 214.222656 C 254.804688 215.136719 253.183594 216.035156 251.523438 216.90625 C 249.859375 217.78125 248.160156 218.632812 246.417969 219.464844 C 244.675781 220.292969 242.894531 221.101562 241.078125 221.886719 C 239.261719 222.671875 237.410156 223.429688 235.519531 224.167969 C 233.632812 224.902344 231.710938 225.613281 229.757812 226.300781 C 227.804688 226.988281 225.816406 227.648438 223.800781 228.285156 C 221.785156 228.921875 219.742188 229.53125 217.667969 230.113281 C 215.59375 230.695312 213.496094 231.25 211.371094 231.78125 C 209.246094 232.308594 207.097656 232.808594 204.925781 233.28125 C 202.753906 233.753906 200.5625 234.199219 198.351562 234.617188 C 196.136719 235.035156 193.90625 235.421875 191.65625 235.78125 C 189.40625 236.140625 187.140625 236.46875 184.863281 236.769531 C 182.582031 237.070312 180.289062 237.339844 177.984375 237.582031 C 175.679688 237.824219 173.363281 238.035156 171.039062 238.214844 C 168.714844 238.398438 166.382812 238.546875 164.042969 238.667969 C 161.703125 238.789062 159.359375 238.882812 157.011719 238.941406 C 154.664062 239.003906 152.316406 239.03125 149.964844 239.03125 C 147.613281 239.03125 145.265625 239.003906 142.917969 238.941406 C 140.570312 238.882812 138.226562 238.789062 135.886719 238.667969 C 133.546875 238.546875 131.214844 238.398438 128.890625 238.214844 C 126.566406 238.035156 124.25 237.824219 121.945312 237.582031 C 119.640625 237.339844 117.347656 237.070312 115.066406 236.769531 C 112.785156 236.46875 110.519531 236.140625 108.273438 235.78125 C 106.023438 235.421875 103.792969 235.035156 101.578125 234.617188 C 99.363281 234.199219 97.171875 233.753906 95 233.28125 C 92.828125 232.808594 90.679688 232.308594 88.554688 231.78125 C 86.433594 231.25 84.332031 230.695312 82.257812 230.113281 C 80.1875 229.53125 78.140625 228.921875 76.125 228.285156 C 74.109375 227.648438 72.125 226.988281 70.171875 226.300781 C 68.214844 225.613281 66.292969 224.902344 64.40625 224.167969 C 62.519531 223.429688 60.667969 222.671875 58.847656 221.886719 C 57.03125 221.101562 55.253906 220.292969 53.511719 219.464844 C 51.769531 218.632812 50.066406 217.78125 48.40625 216.90625 C 46.742188 216.035156 45.125 215.136719 43.546875 214.222656 C 41.964844 213.304688 40.433594 212.371094 38.941406 211.414062 C 37.449219 210.460938 36.003906 209.484375 34.601562 208.492188 C 33.203125 207.5 31.851562 206.488281 30.542969 205.460938 C 29.238281 204.433594 27.980469 203.386719 26.773438 202.328125 C 25.5625 201.269531 24.40625 200.191406 23.296875 199.101562 C 22.191406 198.011719 21.132812 196.90625 20.128906 195.789062 C 19.125 194.671875 18.171875 193.542969 17.273438 192.402344 C 16.371094 191.257812 15.527344 190.105469 14.734375 188.941406 C 13.941406 187.777344 13.207031 186.605469 12.523438 185.421875 C 11.839844 184.238281 11.214844 183.046875 10.644531 181.847656 C 10.070312 180.648438 9.558594 179.441406 9.097656 178.230469 C 8.640625 177.019531 8.238281 175.800781 7.894531 174.578125 C 7.546875 173.355469 7.261719 172.128906 7.03125 170.898438 C 6.800781 169.667969 6.628906 168.433594 6.511719 167.199219 C 6.398438 165.964844 6.339844 164.730469 6.339844 163.492188 C 6.339844 162.257812 6.398438 161.019531 6.511719 159.785156 C 6.628906 158.550781 6.800781 157.320312 7.03125 156.089844 C 7.261719 154.859375 7.546875 153.632812 7.894531 152.410156 C 8.238281 151.1875 8.640625 149.96875 9.097656 148.757812 C 9.558594 147.542969 10.070312 146.335938 10.644531 145.136719 C 11.214844 143.9375 11.839844 142.75 12.523438 141.566406 C 13.207031 140.382812 13.941406 139.207031 14.734375 138.042969 C 15.527344 136.878906 16.371094 135.726562 17.273438 134.585938 C 18.171875 133.441406 19.125 132.3125 20.128906 131.195312 C 21.132812 130.078125 22.191406 128.972656 23.296875 127.882812 C 24.40625 126.792969 25.5625 125.71875 26.773438 124.65625 C 27.980469 123.597656 29.238281 122.554688 30.542969 121.527344 C 31.851562 120.496094 33.203125 119.488281 34.601562 118.496094 C 36.003906 117.5 37.449219 116.527344 38.941406 115.570312 C 40.433594 114.617188 41.964844 113.679688 43.546875 112.765625 C 45.125 111.847656 46.742188 110.953125 48.40625 110.078125 C 50.066406 109.203125 51.769531 108.351562 53.511719 107.523438 C 55.253906 106.691406 57.03125 105.882812 58.847656 105.101562 C 60.667969 104.316406 62.519531 103.554688 64.40625 102.820312 C 66.292969 102.082031 68.214844 101.371094 70.171875 100.683594 C 72.125 99.996094 74.109375 99.335938 76.125 98.699219 C 78.140625 98.066406 80.1875 97.457031 82.257812 96.875 C 84.332031 96.289062 86.433594 95.734375 88.554688 95.207031 C 90.679688 94.675781 92.828125 94.175781 95 93.703125 C 97.171875 93.230469 99.363281 92.785156 101.578125 92.371094 C 103.792969 91.953125 106.023438 91.566406 108.273438 91.207031 C 110.519531 90.847656 112.785156 90.519531 115.066406 90.21875 C 117.347656 89.917969 119.640625 89.644531 121.945312 89.40625 C 124.25 89.164062 126.566406 88.953125 128.890625 88.769531 C 131.214844 88.589844 133.546875 88.4375 135.886719 88.316406 C 138.226562 88.195312 140.570312 88.105469 142.917969 88.042969 C 145.265625 87.984375 147.613281 87.953125 149.964844 87.953125 C 152.316406 87.953125 154.664062 87.984375 157.011719 88.042969 C 159.359375 88.105469 161.703125 88.195312 164.042969 88.316406 C 166.382812 88.4375 168.714844 88.589844 171.039062 88.769531 C 173.363281 88.953125 175.679688 89.164062 177.984375 89.40625 C 180.289062 89.644531 182.582031 89.917969 184.863281 90.21875 C 187.140625 90.519531 189.40625 90.847656 191.65625 91.207031 C 193.90625 91.566406 196.136719 91.953125 198.351562 92.371094 C 200.5625 92.785156 202.753906 93.230469 204.925781 93.703125 C 207.097656 94.175781 209.246094 94.675781 211.371094 95.207031 C 213.496094 95.734375 215.59375 96.289062 217.667969 96.875 C 219.742188 97.457031 221.785156 98.066406 223.800781 98.699219 C 225.816406 99.335938 227.804688 99.996094 229.757812 100.683594 C 231.710938 101.371094 233.632812 102.082031 235.519531 102.820312 C 237.410156 103.554688 239.261719 104.316406 241.078125 105.101562 C 242.894531 105.882812 244.675781 106.691406 246.417969 107.523438 C 248.160156 108.351562 249.859375 109.203125 251.523438 110.078125 C 253.183594 110.953125 254.804688 111.847656 256.382812 112.765625 C 257.960938 113.679688 259.496094 114.617188 260.988281 115.570312 C 262.480469 116.527344 263.925781 117.5 265.324219 118.496094 C 266.726562 119.488281 268.078125 120.496094 269.382812 121.527344 C 270.691406 122.554688 271.945312 123.597656 273.15625 124.65625 C 274.363281 125.71875 275.523438 126.792969 276.628906 127.882812 C 277.738281 128.972656 278.792969 130.078125 279.800781 131.195312 C 280.804688 132.3125 281.757812 133.441406 282.65625 134.585938 C 283.554688 135.726562 284.402344 136.878906 285.191406 138.042969 C 285.984375 139.207031 286.722656 140.382812 287.40625 141.566406 C 288.085938 142.75 288.714844 143.9375 289.285156 145.136719 C 289.855469 146.335938 290.371094 147.542969 290.828125 148.757812 C 291.289062 149.96875 291.691406 151.1875 292.035156 152.410156 C 292.378906 153.632812 292.667969 154.859375 292.898438 156.089844 C 293.128906 157.320312 293.300781 158.550781 293.417969 159.785156 C 293.53125 161.019531 293.589844 162.257812 293.589844 163.492188 Z M 293.589844 163.492188 " clip-rule="nonzero"/></clipPath><radialGradient gradientTransform="matrix(0.999839, 0, 0, 1.000161, 92.137095, 179.900838)" gradientUnits="userSpaceOnUse" r="188.64678" cx="0.434699" id="1b716b58e4" cy="-65.371154" fx="0.434699" fy="-65.371154"><stop stop-opacity="1" stop-color="rgb(99.725342%, 99.772644%, 99.839783%)" offset="0"/><stop stop-opacity="1" stop-color="rgb(99.176025%, 99.319458%, 99.520874%)" offset="0.00390625"/><stop stop-opacity="1" stop-color="rgb(98.628235%, 98.866272%, 99.201965%)" offset="0.0078125"/><stop stop-opacity="1" stop-color="rgb(98.078918%, 98.413086%, 98.883057%)" offset="0.0117188"/><stop stop-opacity="1" stop-color="rgb(97.531128%, 97.9599%, 98.564148%)" offset="0.015625"/><stop stop-opacity="1" stop-color="rgb(96.981812%, 97.506714%, 98.245239%)" offset="0.0195312"/><stop stop-opacity="1" stop-color="rgb(96.434021%, 97.053528%, 97.926331%)" offset="0.0234375"/><stop stop-opacity="1" stop-color="rgb(95.88623%, 96.600342%, 97.607422%)" offset="0.0273438"/><stop stop-opacity="1" stop-color="rgb(95.336914%, 96.147156%, 97.288513%)" offset="0.03125"/><stop stop-opacity="1" stop-color="rgb(94.789124%, 95.69397%, 96.97113%)" offset="0.0351562"/><stop stop-opacity="1" stop-color="rgb(94.239807%, 95.240784%, 96.652222%)" offset="0.0390625"/><stop stop-opacity="1" stop-color="rgb(93.692017%, 94.787598%, 96.333313%)" offset="0.0429688"/><stop stop-opacity="1" stop-color="rgb(93.1427%, 94.334412%, 96.014404%)" offset="0.046875"/><stop stop-opacity="1" stop-color="rgb(92.59491%, 93.881226%, 95.695496%)" offset="0.0507812"/><stop stop-opacity="1" stop-color="rgb(92.047119%, 93.42804%, 95.376587%)" offset="0.0546875"/><stop stop-opacity="1" stop-color="rgb(91.497803%, 92.974854%, 95.057678%)" offset="0.0585938"/><stop stop-opacity="1" stop-color="rgb(90.950012%, 92.521667%, 94.73877%)" offset="0.0625"/><stop stop-opacity="1" stop-color="rgb(90.400696%, 92.068481%, 94.419861%)" offset="0.0664062"/><stop stop-opacity="1" stop-color="rgb(89.852905%, 91.615295%, 94.100952%)" offset="0.0703125"/><stop stop-opacity="1" stop-color="rgb(89.303589%, 91.162109%, 93.783569%)" offset="0.0742188"/><stop stop-opacity="1" stop-color="rgb(88.755798%, 90.708923%, 93.464661%)" offset="0.078125"/><stop stop-opacity="1" stop-color="rgb(88.208008%, 90.255737%, 93.145752%)" offset="0.0820312"/><stop stop-opacity="1" stop-color="rgb(87.658691%, 89.802551%, 92.826843%)" offset="0.0859375"/><stop stop-opacity="1" stop-color="rgb(87.110901%, 89.349365%, 92.507935%)" offset="0.0898438"/><stop stop-opacity="1" stop-color="rgb(86.561584%, 88.897705%, 92.189026%)" offset="0.09375"/><stop stop-opacity="1" stop-color="rgb(86.013794%, 88.444519%, 91.870117%)" offset="0.0976562"/><stop stop-opacity="1" stop-color="rgb(85.464478%, 87.991333%, 91.551208%)" offset="0.101562"/><stop stop-opacity="1" stop-color="rgb(84.916687%, 87.538147%, 91.2323%)" offset="0.105469"/><stop stop-opacity="1" stop-color="rgb(84.368896%, 87.084961%, 90.914917%)" offset="0.109375"/><stop stop-opacity="1" stop-color="rgb(83.81958%, 86.631775%, 90.596008%)" offset="0.113281"/><stop stop-opacity="1" stop-color="rgb(83.27179%, 86.178589%, 90.2771%)" offset="0.117188"/><stop stop-opacity="1" stop-color="rgb(82.722473%, 85.725403%, 89.958191%)" offset="0.121094"/><stop stop-opacity="1" stop-color="rgb(82.174683%, 85.272217%, 89.639282%)" offset="0.125"/><stop stop-opacity="1" stop-color="rgb(81.626892%, 84.819031%, 89.320374%)" offset="0.128906"/><stop stop-opacity="1" stop-color="rgb(81.077576%, 84.365845%, 89.001465%)" offset="0.132812"/><stop stop-opacity="1" stop-color="rgb(80.529785%, 83.912659%, 88.682556%)" offset="0.136719"/><stop stop-opacity="1" stop-color="rgb(79.980469%, 83.459473%, 88.363647%)" offset="0.140625"/><stop stop-opacity="1" stop-color="rgb(79.432678%, 83.006287%, 88.044739%)" offset="0.144531"/><stop stop-opacity="1" stop-color="rgb(78.883362%, 82.553101%, 87.727356%)" offset="0.148438"/><stop stop-opacity="1" stop-color="rgb(78.335571%, 82.099915%, 87.408447%)" offset="0.152344"/><stop stop-opacity="1" stop-color="rgb(77.787781%, 81.646729%, 87.089539%)" offset="0.15625"/><stop stop-opacity="1" stop-color="rgb(77.238464%, 81.193542%, 86.77063%)" offset="0.160156"/><stop stop-opacity="1" stop-color="rgb(76.690674%, 80.740356%, 86.451721%)" offset="0.164062"/><stop stop-opacity="1" stop-color="rgb(76.141357%, 80.28717%, 86.132812%)" offset="0.167969"/><stop stop-opacity="1" stop-color="rgb(75.593567%, 79.833984%, 85.813904%)" offset="0.171875"/><stop stop-opacity="1" stop-color="rgb(75.04425%, 79.380798%, 85.494995%)" offset="0.175781"/><stop stop-opacity="1" stop-color="rgb(74.49646%, 78.927612%, 85.176086%)" offset="0.179688"/><stop stop-opacity="1" stop-color="rgb(73.948669%, 78.474426%, 84.857178%)" offset="0.183594"/><stop stop-opacity="1" stop-color="rgb(73.399353%, 78.02124%, 84.539795%)" offset="0.1875"/><stop stop-opacity="1" stop-color="rgb(72.851562%, 77.56958%, 84.220886%)" offset="0.191406"/><stop stop-opacity="1" stop-color="rgb(72.302246%, 77.116394%, 83.901978%)" offset="0.195312"/><stop stop-opacity="1" stop-color="rgb(71.754456%, 76.663208%, 83.583069%)" offset="0.199219"/><stop stop-opacity="1" stop-color="rgb(71.205139%, 76.210022%, 83.26416%)" offset="0.203125"/><stop stop-opacity="1" stop-color="rgb(70.657349%, 75.756836%, 82.945251%)" offset="0.207031"/><stop stop-opacity="1" stop-color="rgb(70.109558%, 75.30365%, 82.626343%)" offset="0.210938"/><stop stop-opacity="1" stop-color="rgb(69.560242%, 74.850464%, 82.307434%)" offset="0.214844"/><stop stop-opacity="1" stop-color="rgb(69.012451%, 74.397278%, 81.988525%)" offset="0.21875"/><stop stop-opacity="1" stop-color="rgb(68.463135%, 73.944092%, 81.671143%)" offset="0.222656"/><stop stop-opacity="1" stop-color="rgb(67.915344%, 73.490906%, 81.352234%)" offset="0.226562"/><stop stop-opacity="1" stop-color="rgb(67.366028%, 73.03772%, 81.033325%)" offset="0.230469"/><stop stop-opacity="1" stop-color="rgb(66.818237%, 72.584534%, 80.714417%)" offset="0.234375"/><stop stop-opacity="1" stop-color="rgb(66.270447%, 72.131348%, 80.395508%)" offset="0.238281"/><stop stop-opacity="1" stop-color="rgb(65.72113%, 71.678162%, 80.076599%)" offset="0.242188"/><stop stop-opacity="1" stop-color="rgb(65.17334%, 71.224976%, 79.75769%)" offset="0.246094"/><stop stop-opacity="1" stop-color="rgb(64.624023%, 70.77179%, 79.438782%)" offset="0.25"/><stop stop-opacity="1" stop-color="rgb(64.076233%, 70.318604%, 79.119873%)" offset="0.253906"/><stop stop-opacity="1" stop-color="rgb(63.528442%, 69.865417%, 78.800964%)" offset="0.257812"/><stop stop-opacity="1" stop-color="rgb(62.979126%, 69.412231%, 78.483582%)" offset="0.261719"/><stop stop-opacity="1" stop-color="rgb(62.431335%, 68.959045%, 78.164673%)" offset="0.265625"/><stop stop-opacity="1" stop-color="rgb(61.882019%, 68.505859%, 77.845764%)" offset="0.269531"/><stop stop-opacity="1" stop-color="rgb(61.334229%, 68.052673%, 77.526855%)" offset="0.273438"/><stop stop-opacity="1" stop-color="rgb(60.784912%, 67.599487%, 77.207947%)" offset="0.277344"/><stop stop-opacity="1" stop-color="rgb(60.237122%, 67.146301%, 76.889038%)" offset="0.28125"/><stop stop-opacity="1" stop-color="rgb(59.689331%, 66.693115%, 76.570129%)" offset="0.285156"/><stop stop-opacity="1" stop-color="rgb(59.140015%, 66.241455%, 76.251221%)" offset="0.289062"/><stop stop-opacity="1" stop-color="rgb(58.592224%, 65.788269%, 75.932312%)" offset="0.292969"/><stop stop-opacity="1" stop-color="rgb(58.042908%, 65.335083%, 75.614929%)" offset="0.296875"/><stop stop-opacity="1" stop-color="rgb(57.495117%, 64.881897%, 75.296021%)" offset="0.300781"/><stop stop-opacity="1" stop-color="rgb(56.945801%, 64.428711%, 74.977112%)" offset="0.304688"/><stop stop-opacity="1" stop-color="rgb(56.39801%, 63.975525%, 74.658203%)" offset="0.308594"/><stop stop-opacity="1" stop-color="rgb(55.85022%, 63.522339%, 74.339294%)" offset="0.3125"/><stop stop-opacity="1" stop-color="rgb(55.300903%, 63.069153%, 74.020386%)" offset="0.316406"/><stop stop-opacity="1" stop-color="rgb(54.753113%, 62.615967%, 73.701477%)" offset="0.320312"/><stop stop-opacity="1" stop-color="rgb(54.203796%, 62.162781%, 73.382568%)" offset="0.324219"/><stop stop-opacity="1" stop-color="rgb(53.656006%, 61.709595%, 73.06366%)" offset="0.328125"/><stop stop-opacity="1" stop-color="rgb(53.106689%, 61.256409%, 72.744751%)" offset="0.332031"/><stop stop-opacity="1" stop-color="rgb(52.558899%, 60.803223%, 72.427368%)" offset="0.335938"/><stop stop-opacity="1" stop-color="rgb(52.011108%, 60.350037%, 72.108459%)" offset="0.339844"/><stop stop-opacity="1" stop-color="rgb(51.461792%, 59.896851%, 71.789551%)" offset="0.34375"/><stop stop-opacity="1" stop-color="rgb(50.914001%, 59.443665%, 71.470642%)" offset="0.347656"/><stop stop-opacity="1" stop-color="rgb(50.364685%, 58.990479%, 71.151733%)" offset="0.351562"/><stop stop-opacity="1" stop-color="rgb(49.816895%, 58.537292%, 70.832825%)" offset="0.355469"/><stop stop-opacity="1" stop-color="rgb(49.267578%, 58.084106%, 70.513916%)" offset="0.359375"/><stop stop-opacity="1" stop-color="rgb(48.719788%, 57.63092%, 70.195007%)" offset="0.363281"/><stop stop-opacity="1" stop-color="rgb(48.171997%, 57.177734%, 69.876099%)" offset="0.367188"/><stop stop-opacity="1" stop-color="rgb(47.622681%, 56.724548%, 69.55719%)" offset="0.371094"/><stop stop-opacity="1" stop-color="rgb(47.07489%, 56.271362%, 69.239807%)" offset="0.375"/><stop stop-opacity="1" stop-color="rgb(46.525574%, 55.818176%, 68.920898%)" offset="0.378906"/><stop stop-opacity="1" stop-color="rgb(45.977783%, 55.36499%, 68.60199%)" offset="0.382812"/><stop stop-opacity="1" stop-color="rgb(45.429993%, 54.91333%, 68.283081%)" offset="0.386719"/><stop stop-opacity="1" stop-color="rgb(44.880676%, 54.460144%, 67.964172%)" offset="0.390625"/><stop stop-opacity="1" stop-color="rgb(44.332886%, 54.006958%, 67.645264%)" offset="0.394531"/><stop stop-opacity="1" stop-color="rgb(43.783569%, 53.553772%, 67.326355%)" offset="0.398438"/><stop stop-opacity="1" stop-color="rgb(43.235779%, 53.100586%, 67.007446%)" offset="0.402344"/><stop stop-opacity="1" stop-color="rgb(42.686462%, 52.6474%, 66.688538%)" offset="0.40625"/><stop stop-opacity="1" stop-color="rgb(42.138672%, 52.194214%, 66.371155%)" offset="0.410156"/><stop stop-opacity="1" stop-color="rgb(41.590881%, 51.741028%, 66.052246%)" offset="0.414062"/><stop stop-opacity="1" stop-color="rgb(41.041565%, 51.287842%, 65.733337%)" offset="0.417969"/><stop stop-opacity="1" stop-color="rgb(40.493774%, 50.834656%, 65.414429%)" offset="0.421875"/><stop stop-opacity="1" stop-color="rgb(39.944458%, 50.38147%, 65.09552%)" offset="0.425781"/><stop stop-opacity="1" stop-color="rgb(39.396667%, 49.928284%, 64.776611%)" offset="0.429688"/><stop stop-opacity="1" stop-color="rgb(38.847351%, 49.475098%, 64.457703%)" offset="0.433594"/><stop stop-opacity="1" stop-color="rgb(38.299561%, 49.021912%, 64.138794%)" offset="0.4375"/><stop stop-opacity="1" stop-color="rgb(37.75177%, 48.568726%, 63.819885%)" offset="0.441406"/><stop stop-opacity="1" stop-color="rgb(37.202454%, 48.11554%, 63.500977%)" offset="0.445312"/><stop stop-opacity="1" stop-color="rgb(36.654663%, 47.662354%, 63.183594%)" offset="0.449219"/><stop stop-opacity="1" stop-color="rgb(36.105347%, 47.209167%, 62.864685%)" offset="0.453125"/><stop stop-opacity="1" stop-color="rgb(35.557556%, 46.755981%, 62.545776%)" offset="0.457031"/><stop stop-opacity="1" stop-color="rgb(35.00824%, 46.302795%, 62.226868%)" offset="0.460938"/><stop stop-opacity="1" stop-color="rgb(34.460449%, 45.849609%, 61.907959%)" offset="0.464844"/><stop stop-opacity="1" stop-color="rgb(33.912659%, 45.396423%, 61.58905%)" offset="0.46875"/><stop stop-opacity="1" stop-color="rgb(33.363342%, 44.943237%, 61.270142%)" offset="0.472656"/><stop stop-opacity="1" stop-color="rgb(32.815552%, 44.490051%, 60.951233%)" offset="0.476562"/><stop stop-opacity="1" stop-color="rgb(32.266235%, 44.036865%, 60.632324%)" offset="0.480469"/><stop stop-opacity="1" stop-color="rgb(31.718445%, 43.585205%, 60.314941%)" offset="0.484375"/><stop stop-opacity="1" stop-color="rgb(31.170654%, 43.132019%, 59.996033%)" offset="0.488281"/><stop stop-opacity="1" stop-color="rgb(30.621338%, 42.678833%, 59.677124%)" offset="0.492188"/><stop stop-opacity="1" stop-color="rgb(30.073547%, 42.225647%, 59.358215%)" offset="0.496094"/><stop stop-opacity="1" stop-color="rgb(29.736328%, 41.882324%, 59.016418%)" offset="0.5"/><stop stop-opacity="1" stop-color="rgb(29.60968%, 41.648865%, 58.651733%)" offset="0.503906"/><stop stop-opacity="1" stop-color="rgb(29.484558%, 41.416931%, 58.287048%)" offset="0.507812"/><stop stop-opacity="1" stop-color="rgb(29.359436%, 41.183472%, 57.922363%)" offset="0.511719"/><stop stop-opacity="1" stop-color="rgb(29.232788%, 40.951538%, 57.556152%)" offset="0.515625"/><stop stop-opacity="1" stop-color="rgb(29.107666%, 40.718079%, 57.191467%)" offset="0.519531"/><stop stop-opacity="1" stop-color="rgb(28.981018%, 40.486145%, 56.826782%)" offset="0.523438"/><stop stop-opacity="1" stop-color="rgb(28.855896%, 40.252686%, 56.462097%)" offset="0.527344"/><stop stop-opacity="1" stop-color="rgb(28.729248%, 40.019226%, 56.097412%)" offset="0.53125"/><stop stop-opacity="1" stop-color="rgb(28.604126%, 39.787292%, 55.732727%)" offset="0.535156"/><stop stop-opacity="1" stop-color="rgb(28.477478%, 39.553833%, 55.368042%)" offset="0.539062"/><stop stop-opacity="1" stop-color="rgb(28.352356%, 39.321899%, 55.003357%)" offset="0.542969"/><stop stop-opacity="1" stop-color="rgb(28.227234%, 39.08844%, 54.638672%)" offset="0.546875"/><stop stop-opacity="1" stop-color="rgb(28.100586%, 38.856506%, 54.272461%)" offset="0.550781"/><stop stop-opacity="1" stop-color="rgb(27.975464%, 38.623047%, 53.907776%)" offset="0.554688"/><stop stop-opacity="1" stop-color="rgb(27.848816%, 38.389587%, 53.543091%)" offset="0.558594"/><stop stop-opacity="1" stop-color="rgb(27.723694%, 38.157654%, 53.178406%)" offset="0.5625"/><stop stop-opacity="1" stop-color="rgb(27.597046%, 37.924194%, 52.813721%)" offset="0.566406"/><stop stop-opacity="1" stop-color="rgb(27.471924%, 37.692261%, 52.449036%)" offset="0.570312"/><stop stop-opacity="1" stop-color="rgb(27.346802%, 37.458801%, 52.084351%)" offset="0.574219"/><stop stop-opacity="1" stop-color="rgb(27.220154%, 37.226868%, 51.719666%)" offset="0.578125"/><stop stop-opacity="1" stop-color="rgb(27.095032%, 36.993408%, 51.35498%)" offset="0.582031"/><stop stop-opacity="1" stop-color="rgb(26.968384%, 36.759949%, 50.990295%)" offset="0.585938"/><stop stop-opacity="1" stop-color="rgb(26.843262%, 36.528015%, 50.624084%)" offset="0.589844"/><stop stop-opacity="1" stop-color="rgb(26.716614%, 36.294556%, 50.259399%)" offset="0.59375"/><stop stop-opacity="1" stop-color="rgb(26.591492%, 36.062622%, 49.894714%)" offset="0.597656"/><stop stop-opacity="1" stop-color="rgb(26.46637%, 35.829163%, 49.530029%)" offset="0.601562"/><stop stop-opacity="1" stop-color="rgb(26.339722%, 35.595703%, 49.165344%)" offset="0.605469"/><stop stop-opacity="1" stop-color="rgb(26.2146%, 35.36377%, 48.800659%)" offset="0.609375"/><stop stop-opacity="1" stop-color="rgb(26.087952%, 35.13031%, 48.435974%)" offset="0.613281"/><stop stop-opacity="1" stop-color="rgb(25.96283%, 34.898376%, 48.071289%)" offset="0.617188"/><stop stop-opacity="1" stop-color="rgb(25.836182%, 34.664917%, 47.706604%)" offset="0.621094"/><stop stop-opacity="1" stop-color="rgb(25.71106%, 34.432983%, 47.340393%)" offset="0.625"/><stop stop-opacity="1" stop-color="rgb(25.585938%, 34.199524%, 46.975708%)" offset="0.628906"/><stop stop-opacity="1" stop-color="rgb(25.45929%, 33.966064%, 46.611023%)" offset="0.632812"/><stop stop-opacity="1" stop-color="rgb(25.334167%, 33.734131%, 46.246338%)" offset="0.636719"/><stop stop-opacity="1" stop-color="rgb(25.20752%, 33.500671%, 45.881653%)" offset="0.640625"/><stop stop-opacity="1" stop-color="rgb(25.082397%, 33.268738%, 45.516968%)" offset="0.644531"/><stop stop-opacity="1" stop-color="rgb(24.95575%, 33.035278%, 45.152283%)" offset="0.648438"/><stop stop-opacity="1" stop-color="rgb(24.830627%, 32.803345%, 44.787598%)" offset="0.652344"/><stop stop-opacity="1" stop-color="rgb(24.705505%, 32.569885%, 44.422913%)" offset="0.65625"/><stop stop-opacity="1" stop-color="rgb(24.578857%, 32.336426%, 44.058228%)" offset="0.660156"/><stop stop-opacity="1" stop-color="rgb(24.453735%, 32.104492%, 43.692017%)" offset="0.664062"/><stop stop-opacity="1" stop-color="rgb(24.327087%, 31.871033%, 43.327332%)" offset="0.667969"/><stop stop-opacity="1" stop-color="rgb(24.201965%, 31.639099%, 42.962646%)" offset="0.671875"/><stop stop-opacity="1" stop-color="rgb(24.075317%, 31.40564%, 42.597961%)" offset="0.675781"/><stop stop-opacity="1" stop-color="rgb(23.950195%, 31.173706%, 42.233276%)" offset="0.679688"/><stop stop-opacity="1" stop-color="rgb(23.823547%, 30.940247%, 41.868591%)" offset="0.683594"/><stop stop-opacity="1" stop-color="rgb(23.698425%, 30.706787%, 41.503906%)" offset="0.6875"/><stop stop-opacity="1" stop-color="rgb(23.573303%, 30.474854%, 41.139221%)" offset="0.691406"/><stop stop-opacity="1" stop-color="rgb(23.446655%, 30.241394%, 40.774536%)" offset="0.695312"/><stop stop-opacity="1" stop-color="rgb(23.321533%, 30.00946%, 40.409851%)" offset="0.699219"/><stop stop-opacity="1" stop-color="rgb(23.194885%, 29.776001%, 40.04364%)" offset="0.703125"/><stop stop-opacity="1" stop-color="rgb(23.069763%, 29.544067%, 39.678955%)" offset="0.707031"/><stop stop-opacity="1" stop-color="rgb(22.943115%, 29.310608%, 39.31427%)" offset="0.710938"/><stop stop-opacity="1" stop-color="rgb(22.817993%, 29.077148%, 38.949585%)" offset="0.714844"/><stop stop-opacity="1" stop-color="rgb(22.692871%, 28.845215%, 38.5849%)" offset="0.71875"/><stop stop-opacity="1" stop-color="rgb(22.566223%, 28.611755%, 38.220215%)" offset="0.722656"/><stop stop-opacity="1" stop-color="rgb(22.441101%, 28.379822%, 37.85553%)" offset="0.726562"/><stop stop-opacity="1" stop-color="rgb(22.314453%, 28.146362%, 37.490845%)" offset="0.730469"/><stop stop-opacity="1" stop-color="rgb(22.189331%, 27.912903%, 37.12616%)" offset="0.734375"/><stop stop-opacity="1" stop-color="rgb(22.062683%, 27.680969%, 36.759949%)" offset="0.738281"/><stop stop-opacity="1" stop-color="rgb(21.937561%, 27.44751%, 36.395264%)" offset="0.742188"/><stop stop-opacity="1" stop-color="rgb(21.812439%, 27.215576%, 36.030579%)" offset="0.746094"/><stop stop-opacity="1" stop-color="rgb(21.685791%, 26.982117%, 35.665894%)" offset="0.75"/><stop stop-opacity="1" stop-color="rgb(21.560669%, 26.750183%, 35.301208%)" offset="0.753906"/><stop stop-opacity="1" stop-color="rgb(21.434021%, 26.516724%, 34.936523%)" offset="0.757812"/><stop stop-opacity="1" stop-color="rgb(21.308899%, 26.283264%, 34.571838%)" offset="0.761719"/><stop stop-opacity="1" stop-color="rgb(21.182251%, 26.051331%, 34.207153%)" offset="0.765625"/><stop stop-opacity="1" stop-color="rgb(21.057129%, 25.817871%, 33.842468%)" offset="0.769531"/><stop stop-opacity="1" stop-color="rgb(20.932007%, 25.585938%, 33.477783%)" offset="0.773438"/><stop stop-opacity="1" stop-color="rgb(20.805359%, 25.352478%, 33.111572%)" offset="0.777344"/><stop stop-opacity="1" stop-color="rgb(20.680237%, 25.120544%, 32.746887%)" offset="0.78125"/><stop stop-opacity="1" stop-color="rgb(20.553589%, 24.887085%, 32.382202%)" offset="0.785156"/><stop stop-opacity="1" stop-color="rgb(20.428467%, 24.653625%, 32.017517%)" offset="0.789062"/><stop stop-opacity="1" stop-color="rgb(20.301819%, 24.421692%, 31.652832%)" offset="0.792969"/><stop stop-opacity="1" stop-color="rgb(20.176697%, 24.188232%, 31.288147%)" offset="0.796875"/><stop stop-opacity="1" stop-color="rgb(20.051575%, 23.956299%, 30.923462%)" offset="0.800781"/><stop stop-opacity="1" stop-color="rgb(19.924927%, 23.722839%, 30.558777%)" offset="0.804688"/><stop stop-opacity="1" stop-color="rgb(19.799805%, 23.490906%, 30.194092%)" offset="0.808594"/><stop stop-opacity="1" stop-color="rgb(19.673157%, 23.257446%, 29.827881%)" offset="0.8125"/><stop stop-opacity="1" stop-color="rgb(19.548035%, 23.023987%, 29.463196%)" offset="0.816406"/><stop stop-opacity="1" stop-color="rgb(19.421387%, 22.792053%, 29.098511%)" offset="0.820312"/><stop stop-opacity="1" stop-color="rgb(19.296265%, 22.558594%, 28.733826%)" offset="0.824219"/><stop stop-opacity="1" stop-color="rgb(19.171143%, 22.32666%, 28.369141%)" offset="0.828125"/><stop stop-opacity="1" stop-color="rgb(19.044495%, 22.093201%, 28.004456%)" offset="0.832031"/><stop stop-opacity="1" stop-color="rgb(18.919373%, 21.861267%, 27.639771%)" offset="0.835938"/><stop stop-opacity="1" stop-color="rgb(18.792725%, 21.627808%, 27.275085%)" offset="0.839844"/><stop stop-opacity="1" stop-color="rgb(18.667603%, 21.394348%, 26.9104%)" offset="0.84375"/><stop stop-opacity="1" stop-color="rgb(18.540955%, 21.162415%, 26.545715%)" offset="0.847656"/><stop stop-opacity="1" stop-color="rgb(18.415833%, 20.928955%, 26.179504%)" offset="0.851562"/><stop stop-opacity="1" stop-color="rgb(18.289185%, 20.697021%, 25.814819%)" offset="0.855469"/><stop stop-opacity="1" stop-color="rgb(18.164062%, 20.463562%, 25.450134%)" offset="0.859375"/><stop stop-opacity="1" stop-color="rgb(18.03894%, 20.230103%, 25.085449%)" offset="0.863281"/><stop stop-opacity="1" stop-color="rgb(17.912292%, 19.998169%, 24.720764%)" offset="0.867188"/><stop stop-opacity="1" stop-color="rgb(17.78717%, 19.764709%, 24.356079%)" offset="0.871094"/><stop stop-opacity="1" stop-color="rgb(17.660522%, 19.532776%, 23.991394%)" offset="0.875"/><stop stop-opacity="1" stop-color="rgb(17.5354%, 19.299316%, 23.626709%)" offset="0.878906"/><stop stop-opacity="1" stop-color="rgb(17.408752%, 19.067383%, 23.262024%)" offset="0.882812"/><stop stop-opacity="1" stop-color="rgb(17.28363%, 18.833923%, 22.897339%)" offset="0.886719"/><stop stop-opacity="1" stop-color="rgb(17.158508%, 18.600464%, 22.531128%)" offset="0.890625"/><stop stop-opacity="1" stop-color="rgb(17.03186%, 18.36853%, 22.166443%)" offset="0.894531"/><stop stop-opacity="1" stop-color="rgb(16.906738%, 18.135071%, 21.801758%)" offset="0.898438"/><stop stop-opacity="1" stop-color="rgb(16.78009%, 17.903137%, 21.437073%)" offset="0.902344"/><stop stop-opacity="1" stop-color="rgb(16.654968%, 17.669678%, 21.072388%)" offset="0.90625"/><stop stop-opacity="1" stop-color="rgb(16.52832%, 17.437744%, 20.707703%)" offset="0.910156"/><stop stop-opacity="1" stop-color="rgb(16.403198%, 17.204285%, 20.343018%)" offset="0.914062"/><stop stop-opacity="1" stop-color="rgb(16.278076%, 16.970825%, 19.978333%)" offset="0.917969"/><stop stop-opacity="1" stop-color="rgb(16.151428%, 16.738892%, 19.613647%)" offset="0.921875"/><stop stop-opacity="1" stop-color="rgb(16.026306%, 16.505432%, 19.247437%)" offset="0.925781"/><stop stop-opacity="1" stop-color="rgb(15.899658%, 16.273499%, 18.882751%)" offset="0.929688"/><stop stop-opacity="1" stop-color="rgb(15.774536%, 16.040039%, 18.518066%)" offset="0.933594"/><stop stop-opacity="1" stop-color="rgb(15.647888%, 15.808105%, 18.153381%)" offset="0.9375"/><stop stop-opacity="1" stop-color="rgb(15.522766%, 15.574646%, 17.788696%)" offset="0.941406"/><stop stop-opacity="1" stop-color="rgb(15.397644%, 15.341187%, 17.424011%)" offset="0.945312"/><stop stop-opacity="1" stop-color="rgb(15.270996%, 15.109253%, 17.059326%)" offset="0.949219"/><stop stop-opacity="1" stop-color="rgb(15.145874%, 14.875793%, 16.694641%)" offset="0.953125"/><stop stop-opacity="1" stop-color="rgb(15.019226%, 14.64386%, 16.329956%)" offset="0.957031"/><stop stop-opacity="1" stop-color="rgb(14.894104%, 14.4104%, 15.965271%)" offset="0.960938"/><stop stop-opacity="1" stop-color="rgb(14.767456%, 14.178467%, 15.59906%)" offset="0.964844"/><stop stop-opacity="1" stop-color="rgb(14.642334%, 13.945007%, 15.234375%)" offset="0.96875"/><stop stop-opacity="1" stop-color="rgb(14.517212%, 13.711548%, 14.86969%)" offset="0.972656"/><stop stop-opacity="1" stop-color="rgb(14.390564%, 13.479614%, 14.505005%)" offset="0.976562"/><stop stop-opacity="1" stop-color="rgb(14.265442%, 13.246155%, 14.14032%)" offset="0.980469"/><stop stop-opacity="1" stop-color="rgb(14.138794%, 13.014221%, 13.775635%)" offset="0.984375"/><stop stop-opacity="1" stop-color="rgb(14.013672%, 12.780762%, 13.41095%)" offset="0.988281"/><stop stop-opacity="1" stop-color="rgb(13.887024%, 12.547302%, 13.046265%)" offset="0.992188"/><stop stop-opacity="1" stop-color="rgb(13.761902%, 12.315369%, 12.68158%)" offset="0.996094"/><stop stop-opacity="1" stop-color="rgb(13.699341%, 12.199402%, 12.5%)" offset="1"/></radialGradient></defs><g clip-path="url(#12d72fe2e8)"><g clip-path="url(#11ad167e4b)"><path fill="url(#1b716b58e4)" d="M 6.339844 87.953125 L 6.339844 239.03125 L 293.589844 239.03125 L 293.589844 87.953125 Z M 6.339844 87.953125 " fill-rule="nonzero"/></g></g><path fill="#6181b6" d="M 287.980469 163.492188 C 287.980469 164.636719 287.921875 165.78125 287.8125 166.925781 C 287.703125 168.066406 287.535156 169.207031 287.3125 170.347656 C 287.09375 171.484375 286.816406 172.621094 286.484375 173.753906 C 286.152344 174.886719 285.765625 176.011719 285.328125 177.136719 C 284.886719 178.257812 284.390625 179.375 283.84375 180.484375 C 283.292969 181.59375 282.691406 182.695312 282.035156 183.792969 C 281.378906 184.886719 280.671875 185.972656 279.910156 187.050781 C 279.148438 188.128906 278.335938 189.195312 277.472656 190.253906 C 276.609375 191.308594 275.695312 192.355469 274.726562 193.390625 C 273.761719 194.425781 272.746094 195.449219 271.683594 196.457031 C 270.617188 197.464844 269.503906 198.460938 268.34375 199.441406 C 267.183594 200.425781 265.972656 201.390625 264.71875 202.34375 C 263.464844 203.292969 262.164062 204.230469 260.820312 205.148438 C 259.472656 206.066406 258.082031 206.96875 256.652344 207.855469 C 255.21875 208.738281 253.742188 209.605469 252.226562 210.453125 C 250.710938 211.300781 249.152344 212.128906 247.554688 212.9375 C 245.957031 213.75 244.324219 214.539062 242.648438 215.304688 C 240.976562 216.074219 239.265625 216.820312 237.519531 217.546875 C 235.773438 218.273438 233.992188 218.976562 232.179688 219.660156 C 230.363281 220.339844 228.519531 221 226.640625 221.636719 C 224.761719 222.273438 222.855469 222.882812 220.917969 223.472656 C 218.980469 224.058594 217.015625 224.625 215.023438 225.164062 C 213.03125 225.703125 211.015625 226.21875 208.972656 226.707031 C 206.929688 227.195312 204.867188 227.660156 202.78125 228.097656 C 200.691406 228.535156 198.585938 228.949219 196.460938 229.332031 C 194.332031 229.71875 192.1875 230.078125 190.027344 230.410156 C 187.867188 230.742188 185.691406 231.046875 183.5 231.324219 C 181.308594 231.601562 179.105469 231.855469 176.890625 232.078125 C 174.675781 232.300781 172.449219 232.496094 170.214844 232.664062 C 167.980469 232.832031 165.738281 232.972656 163.492188 233.082031 C 161.242188 233.195312 158.992188 233.28125 156.734375 233.335938 C 154.480469 233.390625 152.222656 233.421875 149.964844 233.421875 C 147.707031 233.421875 145.449219 233.390625 143.191406 233.335938 C 140.9375 233.28125 138.683594 233.195312 136.4375 233.082031 C 134.1875 232.972656 131.949219 232.832031 129.714844 232.664062 C 127.480469 232.496094 125.253906 232.300781 123.039062 232.078125 C 120.824219 231.855469 118.621094 231.601562 116.429688 231.324219 C 114.238281 231.046875 112.0625 230.742188 109.902344 230.410156 C 107.738281 230.078125 105.59375 229.71875 103.46875 229.332031 C 101.339844 228.949219 99.234375 228.535156 97.148438 228.097656 C 95.0625 227.660156 92.996094 227.195312 90.957031 226.707031 C 88.914062 226.21875 86.894531 225.703125 84.90625 225.164062 C 82.914062 224.625 80.949219 224.058594 79.011719 223.472656 C 77.074219 222.882812 75.164062 222.273438 73.289062 221.636719 C 71.410156 221 69.5625 220.339844 67.75 219.660156 C 65.933594 218.976562 64.15625 218.273438 62.410156 217.546875 C 60.664062 216.820312 58.953125 216.074219 57.277344 215.304688 C 55.605469 214.539062 53.96875 213.75 52.371094 212.9375 C 50.777344 212.128906 49.21875 211.300781 47.703125 210.453125 C 46.183594 209.605469 44.710938 208.738281 43.277344 207.855469 C 41.84375 206.96875 40.457031 206.066406 39.109375 205.148438 C 37.765625 204.230469 36.464844 203.292969 35.210938 202.34375 C 33.953125 201.390625 32.746094 200.425781 31.585938 199.441406 C 30.421875 198.460938 29.3125 197.464844 28.246094 196.457031 C 27.179688 195.449219 26.167969 194.425781 25.199219 193.390625 C 24.234375 192.355469 23.320312 191.308594 22.457031 190.253906 C 21.589844 189.195312 20.777344 188.128906 20.015625 187.050781 C 19.257812 185.972656 18.546875 184.886719 17.890625 183.792969 C 17.238281 182.695312 16.632812 181.59375 16.085938 180.484375 C 15.535156 179.375 15.042969 178.257812 14.601562 177.136719 C 14.160156 176.011719 13.773438 174.886719 13.441406 173.753906 C 13.113281 172.621094 12.835938 171.484375 12.613281 170.347656 C 12.394531 169.207031 12.226562 168.066406 12.117188 166.925781 C 12.003906 165.78125 11.949219 164.636719 11.949219 163.492188 C 11.949219 162.347656 12.003906 161.203125 12.117188 160.0625 C 12.226562 158.917969 12.394531 157.777344 12.613281 156.640625 C 12.835938 155.5 13.113281 154.363281 13.441406 153.234375 C 13.773438 152.101562 14.160156 150.972656 14.601562 149.851562 C 15.042969 148.730469 15.535156 147.613281 16.085938 146.503906 C 16.632812 145.390625 17.238281 144.289062 17.890625 143.195312 C 18.546875 142.097656 19.257812 141.011719 20.015625 139.933594 C 20.777344 138.859375 21.589844 137.789062 22.457031 136.734375 C 23.320312 135.675781 24.234375 134.628906 25.199219 133.59375 C 26.167969 132.5625 27.179688 131.539062 28.246094 130.53125 C 29.3125 129.519531 30.421875 128.523438 31.585938 127.542969 C 32.746094 126.5625 33.953125 125.59375 35.210938 124.644531 C 36.464844 123.691406 37.765625 122.757812 39.109375 121.835938 C 40.457031 120.917969 41.84375 120.015625 43.277344 119.132812 C 44.710938 118.246094 46.183594 117.378906 47.703125 116.53125 C 49.21875 115.683594 50.777344 114.855469 52.371094 114.046875 C 53.96875 113.238281 55.605469 112.449219 57.277344 111.679688 C 58.953125 110.910156 60.664062 110.164062 62.410156 109.4375 C 64.15625 108.710938 65.933594 108.007812 67.75 107.328125 C 69.5625 106.644531 71.410156 105.988281 73.289062 105.351562 C 75.164062 104.714844 77.074219 104.101562 79.011719 103.515625 C 80.949219 102.925781 82.914062 102.363281 84.90625 101.824219 C 86.894531 101.28125 88.914062 100.769531 90.957031 100.28125 C 92.996094 99.789062 95.0625 99.328125 97.148438 98.886719 C 99.234375 98.449219 101.339844 98.039062 103.46875 97.652344 C 105.59375 97.269531 107.738281 96.910156 109.902344 96.578125 C 112.0625 96.246094 114.238281 95.9375 116.429688 95.660156 C 118.621094 95.382812 120.824219 95.132812 123.039062 94.910156 C 125.253906 94.6875 127.480469 94.492188 129.714844 94.324219 C 131.949219 94.15625 134.1875 94.015625 136.4375 93.902344 C 138.683594 93.789062 140.9375 93.707031 143.191406 93.648438 C 145.449219 93.59375 147.707031 93.566406 149.964844 93.566406 C 152.222656 93.566406 154.480469 93.59375 156.734375 93.648438 C 158.992188 93.707031 161.242188 93.789062 163.492188 93.902344 C 165.738281 94.015625 167.980469 94.15625 170.214844 94.324219 C 172.449219 94.492188 174.675781 94.6875 176.890625 94.910156 C 179.105469 95.132812 181.308594 95.382812 183.5 95.660156 C 185.691406 95.9375 187.867188 96.246094 190.027344 96.578125 C 192.1875 96.910156 194.332031 97.269531 196.460938 97.652344 C 198.585938 98.039062 200.691406 98.449219 202.78125 98.886719 C 204.867188 99.328125 206.929688 99.789062 208.972656 100.28125 C 211.015625 100.769531 213.03125 101.28125 215.023438 101.824219 C 217.015625 102.363281 218.980469 102.925781 220.917969 103.515625 C 222.855469 104.101562 224.761719 104.714844 226.640625 105.351562 C 228.519531 105.988281 230.363281 106.644531 232.179688 107.328125 C 233.992188 108.007812 235.773438 108.710938 237.519531 109.4375 C 239.265625 110.164062 240.976562 110.910156 242.648438 111.679688 C 244.324219 112.449219 245.957031 113.238281 247.554688 114.046875 C 249.152344 114.855469 250.710938 115.683594 252.226562 116.53125 C 253.742188 117.378906 255.21875 118.246094 256.652344 119.132812 C 258.082031 120.015625 259.472656 120.917969 260.820312 121.835938 C 262.164062 122.757812 263.464844 123.691406 264.71875 124.644531 C 265.972656 125.59375 267.183594 126.5625 268.34375 127.542969 C 269.503906 128.523438 270.617188 129.519531 271.683594 130.53125 C 272.746094 131.539062 273.761719 132.5625 274.726562 133.59375 C 275.695312 134.628906 276.609375 135.675781 277.472656 136.734375 C 278.335938 137.789062 279.148438 138.859375 279.910156 139.933594 C 280.671875 141.011719 281.378906 142.097656 282.035156 143.195312 C 282.691406 144.289062 283.292969 145.390625 283.84375 146.503906 C 284.390625 147.613281 284.886719 148.730469 285.328125 149.851562 C 285.765625 150.972656 286.152344 152.101562 286.484375 153.234375 C 286.816406 154.363281 287.09375 155.5 287.3125 156.640625 C 287.535156 157.777344 287.703125 158.917969 287.8125 160.0625 C 287.921875 161.203125 287.980469 162.347656 287.980469 163.492188 Z M 287.980469 163.492188 " fill-opacity="1" fill-rule="nonzero"/><path fill="#ffffff" d="M 177.902344 186.167969 L 184.75 150.921875 C 186.320312 142.953125 184.972656 137.003906 180.933594 133.300781 C 177.007812 129.707031 170.273438 127.910156 160.398438 127.910156 L 148.503906 127.910156 L 151.871094 110.402344 C 151.984375 109.730469 151.871094 109.054688 151.421875 108.492188 C 150.972656 107.933594 150.414062 107.707031 149.738281 107.707031 L 133.359375 107.707031 C 132.234375 107.707031 131.335938 108.492188 131.113281 109.503906 L 123.820312 146.882812 C 123.148438 142.617188 121.574219 139.023438 118.882812 136.105469 C 114.058594 130.605469 106.539062 127.800781 96.328125 127.800781 L 64.800781 127.800781 C 63.675781 127.800781 62.777344 128.585938 62.554688 129.59375 L 47.855469 205.472656 C 47.742188 206.144531 47.855469 206.820312 48.304688 207.378906 C 48.753906 207.941406 49.3125 208.164062 49.988281 208.164062 L 66.480469 208.164062 C 67.605469 208.164062 68.5 207.378906 68.726562 206.371094 L 72.316406 188.074219 L 84.546875 188.074219 C 90.941406 188.074219 96.441406 187.402344 100.59375 186.054688 C 104.96875 184.59375 108.894531 182.238281 112.375 178.984375 C 115.179688 176.402344 117.535156 173.484375 119.332031 170.339844 L 116.414062 185.492188 C 116.300781 186.167969 116.414062 186.839844 116.863281 187.402344 C 117.3125 187.960938 117.871094 188.1875 118.546875 188.1875 L 134.929688 188.1875 C 136.050781 188.1875 136.949219 187.402344 137.171875 186.390625 L 145.25 144.859375 L 156.472656 144.859375 C 161.296875 144.859375 162.644531 145.757812 163.09375 146.207031 C 163.429688 146.542969 164.101562 147.890625 163.316406 152.042969 L 156.808594 185.605469 C 156.695312 186.277344 156.808594 186.953125 157.257812 187.511719 C 157.707031 188.074219 158.265625 188.300781 158.941406 188.300781 L 175.773438 188.300781 C 176.78125 187.960938 177.679688 187.175781 177.902344 186.167969 Z M 102.050781 156.984375 C 101.042969 162.257812 99.132812 166.074219 96.328125 168.207031 C 93.523438 170.339844 88.921875 171.460938 82.863281 171.460938 L 75.570312 171.460938 L 80.84375 144.300781 L 90.269531 144.300781 C 97.226562 144.300781 100.03125 145.757812 101.152344 146.992188 C 102.613281 148.789062 102.949219 152.269531 102.050781 156.984375 Z M 102.050781 156.984375 " fill-opacity="1" fill-rule="nonzero"/><path fill="#ffffff" d="M 247.921875 136.105469 C 243.097656 130.605469 235.578125 127.800781 225.367188 127.800781 L 193.613281 127.800781 C 192.492188 127.800781 191.59375 128.585938 191.367188 129.59375 L 176.667969 205.359375 C 176.558594 206.035156 176.667969 206.707031 177.117188 207.269531 C 177.566406 207.828125 178.128906 208.054688 178.800781 208.054688 L 195.296875 208.054688 C 196.417969 208.054688 197.316406 207.269531 197.539062 206.257812 L 201.128906 187.960938 L 213.359375 187.960938 C 219.757812 187.960938 225.253906 187.289062 229.40625 185.941406 C 233.78125 184.484375 237.710938 182.125 241.1875 178.871094 C 244.105469 176.175781 246.574219 173.144531 248.371094 169.890625 C 250.164062 166.636719 251.511719 163.042969 252.296875 159.117188 C 254.203125 149.351562 252.746094 141.71875 247.921875 136.105469 Z M 230.753906 156.984375 C 229.742188 162.257812 227.835938 166.074219 225.03125 168.207031 C 222.226562 170.339844 217.625 171.460938 211.566406 171.460938 L 204.273438 171.460938 L 209.546875 144.300781 L 218.972656 144.300781 C 225.929688 144.300781 228.734375 145.757812 229.855469 146.992188 C 231.425781 148.789062 231.761719 152.269531 230.753906 156.984375 Z M 230.753906 156.984375 " fill-opacity="1" fill-rule="nonzero"/><path fill="#000004" d="M 90.269531 142.054688 C 96.554688 142.054688 100.707031 143.175781 102.835938 145.535156 C 104.96875 147.890625 105.417969 151.820312 104.296875 157.433594 C 103.171875 163.269531 100.929688 167.535156 97.675781 170.003906 C 94.421875 172.472656 89.484375 173.707031 82.863281 173.707031 L 72.878906 173.707031 L 79.050781 142.054688 Z M 50.101562 205.808594 L 66.59375 205.808594 L 70.523438 185.71875 L 84.660156 185.71875 C 90.941406 185.71875 95.992188 185.042969 100.03125 183.695312 C 104.070312 182.351562 107.660156 180.21875 111.027344 177.074219 C 113.832031 174.492188 116.078125 171.6875 117.761719 168.65625 C 119.445312 165.625 120.679688 162.257812 121.351562 158.554688 C 123.148438 149.574219 121.800781 142.617188 117.425781 137.566406 C 113.046875 132.515625 106.089844 130.042969 96.554688 130.042969 L 64.800781 130.042969 Z M 50.101562 205.808594 " fill-opacity="1" fill-rule="nonzero"/><path fill="#000004" d="M 133.46875 109.953125 L 149.851562 109.953125 L 145.925781 130.042969 L 160.511719 130.042969 C 169.710938 130.042969 175.996094 131.617188 179.472656 134.871094 C 182.953125 138.125 183.960938 143.289062 182.617188 150.472656 L 175.773438 185.71875 L 159.164062 185.71875 L 165.671875 152.15625 C 166.457031 148.339844 166.121094 145.757812 164.886719 144.410156 C 163.652344 143.066406 160.847656 142.277344 156.695312 142.277344 L 143.566406 142.277344 L 135.152344 185.71875 L 118.769531 185.71875 Z M 133.46875 109.953125 " fill-opacity="1" fill-rule="nonzero"/><path fill="#000004" d="M 218.972656 142.054688 C 225.253906 142.054688 229.40625 143.175781 231.539062 145.535156 C 233.671875 147.890625 234.121094 151.820312 232.996094 157.433594 C 231.875 163.269531 229.632812 167.535156 226.378906 170.003906 C 223.125 172.472656 218.1875 173.707031 211.566406 173.707031 L 201.578125 173.707031 L 207.75 142.054688 Z M 178.800781 205.808594 L 195.296875 205.808594 L 199.222656 185.71875 L 213.359375 185.71875 C 219.644531 185.71875 224.695312 185.042969 228.734375 183.695312 C 232.773438 182.351562 236.363281 180.21875 239.730469 177.074219 C 242.535156 174.492188 244.777344 171.6875 246.460938 168.65625 C 248.144531 165.625 249.378906 162.257812 250.054688 158.554688 C 251.847656 149.574219 250.5 142.617188 246.125 137.566406 C 241.75 132.515625 234.792969 130.042969 225.253906 130.042969 L 193.5 130.042969 Z M 178.800781 205.808594 " fill-opacity="1" fill-rule="nonzero"/></svg>