<svg xmlns="http://www.w3.org/2000/svg" xmlns:xlink="http://www.w3.org/1999/xlink" width="400" zoomAndPan="magnify" viewBox="0 0 300 299.999988" height="400" preserveAspectRatio="xMidYMid meet" version="1.0"><defs><clipPath id="c5438b5402"><path d="M 33.84375 30 L 270 30 L 270 185 L 33.84375 185 Z M 33.84375 30 " clip-rule="nonzero"/></clipPath><clipPath id="9d6aa1da2e"><path d="M 67 69 L 270.09375 69 L 270.09375 282 L 67 282 Z M 67 69 " clip-rule="nonzero"/></clipPath><clipPath id="16370b9633"><path d="M 33.84375 69 L 237 69 L 237 282 L 33.84375 282 Z M 33.84375 69 " clip-rule="nonzero"/></clipPath></defs><g clip-path="url(#c5438b5402)"><path fill="#f6bd3a" d="M 135.28125 165.601562 L 169.074219 145.980469 L 202.449219 165.601562 L 169.074219 184.808594 L 135.28125 166.019531 Z M 33.894531 107.570312 L 169.074219 30.746094 L 269.625 87.941406 L 236.25 145.980469 L 169.078125 107.570312 L 67.695312 165.1875 Z M 33.894531 107.570312 " fill-opacity="1" fill-rule="nonzero"/></g><g clip-path="url(#9d6aa1da2e)"><path fill="#eb8c23" d="M 135.28125 242.425781 L 135.28125 204.015625 L 168.65625 184.808594 L 202.449219 165.601562 L 202.449219 204.011719 L 169.074219 223.21875 L 169.074219 261.628906 L 135.28125 281.253906 Z M 135.28125 165.601562 L 101.484375 146.394531 L 67.691406 165.183594 L 67.691406 126.773438 L 169.074219 69.15625 L 169.074219 145.980469 Z M 235.832031 126.773438 L 235.832031 107.566406 L 269.625 87.941406 L 270.042969 126.355469 L 236.25 145.976562 Z M 235.832031 126.773438 " fill-opacity="1" fill-rule="nonzero"/></g><g clip-path="url(#16370b9633)"><path fill="#e35a2b" d="M 101.484375 260.796875 L 101.484375 146.398438 L 134.859375 127.609375 L 135.28125 165.605469 L 169.074219 184.394531 L 169.074219 223.222656 L 135.28125 205.269531 L 135.28125 281.253906 Z M 50.585938 155.167969 L 33.894531 145.144531 L 33.894531 107.570312 L 67.691406 126.777344 L 67.691406 165.1875 Z M 169.074219 107.570312 L 169.074219 69.15625 L 235.832031 107.566406 L 236.25 145.976562 L 169.078125 107.566406 Z M 169.074219 107.570312 " fill-opacity="1" fill-rule="nonzero"/></g></svg>