<svg xmlns="http://www.w3.org/2000/svg" xmlns:xlink="http://www.w3.org/1999/xlink" width="400" zoomAndPan="magnify" viewBox="0 0 300 299.999988" height="400" preserveAspectRatio="xMidYMid meet" version="1.0"><defs><clipPath id="a9b7cb1915"><path d="M 30 30 L 274.5 30 L 274.5 274.5 L 30 274.5 Z M 30 30 " clip-rule="nonzero"/></clipPath></defs><g clip-path="url(#a9b7cb1915)"><path fill="#007acc" d="M 30 274.5 L 274.5 274.5 L 274.5 30 L 30 30 Z M 30 274.5 " fill-opacity="1" fill-rule="nonzero"/></g><path fill="#ffffff" d="M 84.058594 153.050781 L 83.980469 163.070312 L 115.804688 163.070312 L 115.804688 253.496094 L 138.3125 253.496094 L 138.3125 163.070312 L 170.136719 163.070312 L 170.136719 153.253906 C 170.136719 147.820312 170.023438 143.273438 169.867188 143.15625 C 169.75 143.003906 150.382812 142.929688 126.902344 142.964844 L 84.171875 143.082031 Z M 84.058594 153.050781 " fill-opacity="1" fill-rule="nonzero"/><path fill="#ffffff" d="M 227.289062 142.804688 C 233.5 144.351562 238.234375 147.113281 242.582031 151.609375 C 244.824219 154.015625 248.167969 158.402344 248.4375 159.453125 C 248.511719 159.765625 237.882812 166.902344 231.433594 170.902344 C 231.207031 171.054688 230.28125 170.042969 229.230469 168.496094 C 226.085938 163.910156 222.78125 161.933594 217.738281 161.589844 C 210.328125 161.085938 205.554688 164.960938 205.589844 171.445312 C 205.589844 173.347656 205.867188 174.476562 206.640625 176.023438 C 208.273438 179.402344 211.300781 181.417969 220.804688 185.535156 C 238.3125 193.058594 245.800781 198.027344 250.460938 205.09375 C 255.65625 212.972656 256.820312 225.542969 253.289062 234.894531 C 249.410156 245.066406 239.78125 251.96875 226.238281 254.261719 C 222.046875 254.996094 212.113281 254.882812 207.605469 254.070312 C 197.789062 252.324219 188.476562 247.472656 182.734375 241.109375 C 180.480469 238.628906 176.097656 232.140625 176.367188 231.675781 C 176.488281 231.519531 177.492188 230.902344 178.621094 230.242188 C 179.707031 229.621094 183.824219 227.253906 187.703125 225 L 194.722656 220.929688 L 196.203125 223.097656 C 198.257812 226.238281 202.765625 230.546875 205.476562 231.988281 C 213.28125 236.097656 223.984375 235.515625 229.265625 230.785156 C 231.523438 228.722656 232.449219 226.59375 232.449219 223.449219 C 232.449219 220.613281 232.105469 219.371094 230.625 217.242188 C 228.722656 214.519531 224.84375 212.230469 213.824219 207.464844 C 201.207031 202.027344 195.773438 198.648438 190.804688 193.289062 C 187.933594 190.1875 185.21875 185.21875 184.09375 181.066406 C 183.15625 177.617188 182.925781 168.964844 183.664062 165.46875 C 186.269531 153.28125 195.46875 144.78125 208.734375 142.261719 C 213.039062 141.449219 223.058594 141.753906 227.289062 142.804688 Z M 227.289062 142.804688 " fill-opacity="1" fill-rule="nonzero"/></svg>