<svg xmlns="http://www.w3.org/2000/svg" xmlns:xlink="http://www.w3.org/1999/xlink" width="800" zoomAndPan="magnify" viewBox="0 0 600 599.999999" height="800" preserveAspectRatio="xMidYMid meet" version="1.0"><defs><clipPath id="b71129b1a9"><path d="M 16.105469 340 L 422 340 L 422 509.664062 L 16.105469 509.664062 Z M 16.105469 340 " clip-rule="nonzero"/></clipPath><clipPath id="0055e36168"><path d="M 353 161 L 589.105469 161 L 589.105469 368 L 353 368 Z M 353 161 " clip-rule="nonzero"/></clipPath></defs><g clip-path="url(#b71129b1a9)"><path fill="#040606" d="M 142.214844 340.925781 C 74.148438 358.730469 31.265625 401.917969 17.378906 462.558594 C 13.308594 479.855469 19.617188 484.941406 27.402344 487.332031 C 80.863281 503.8125 179.910156 509.664062 218.773438 509.664062 C 257.636719 509.664062 356.683594 503.8125 410.148438 487.332031 C 417.929688 484.941406 424.238281 479.855469 420.167969 462.558594 C 406.28125 401.917969 363.398438 358.730469 295.332031 340.925781 L 224.980469 399.832031 C 221.417969 402.835938 216.179688 402.835938 212.566406 399.832031 L 142.214844 340.925781 " fill-opacity="1" fill-rule="nonzero"/></g><path fill="#040606" d="M 218.773438 84.6875 C 159.5625 84.6875 111.894531 132.863281 111.894531 192.6875 L 111.894531 200.011719 C 111.894531 259.835938 159.5625 308.011719 218.773438 308.011719 C 277.933594 308.011719 325.652344 259.835938 325.652344 200.011719 L 325.652344 192.6875 C 325.652344 132.863281 277.933594 84.6875 218.773438 84.6875 " fill-opacity="1" fill-rule="nonzero"/><g clip-path="url(#0055e36168)"><path fill="#040606" d="M 461.21875 250.933594 L 491.082031 250.933594 C 496.371094 250.933594 500.644531 255.207031 500.644531 260.496094 L 500.644531 300.535156 L 511.378906 300.535156 L 511.378906 324.1875 L 461.21875 324.1875 L 461.21875 300.535156 L 472.003906 300.535156 L 472.003906 269.09375 L 461.21875 264.3125 Z M 486.300781 204.945312 C 495.914062 204.945312 503.644531 212.679688 503.644531 222.292969 C 503.644531 231.855469 495.914062 239.589844 486.300781 239.589844 C 476.734375 239.589844 469.003906 231.855469 469.003906 222.292969 C 469.003906 212.679688 476.734375 204.945312 486.300781 204.945312 Z M 486.300781 161.808594 C 429.527344 161.808594 383.542969 207.796875 383.542969 264.566406 C 383.542969 267.109375 383.644531 269.605469 383.847656 272.097656 L 353.476562 297.683594 L 353.476562 313.453125 L 396.003906 313.453125 C 413.910156 346.621094 448.605469 367.328125 486.300781 367.378906 C 543.121094 367.378906 589.105469 321.339844 589.105469 264.566406 C 589.105469 207.796875 543.121094 161.808594 486.300781 161.808594 " fill-opacity="1" fill-rule="nonzero"/></g></svg>