<svg xmlns="http://www.w3.org/2000/svg" xmlns:xlink="http://www.w3.org/1999/xlink" width="500" zoomAndPan="magnify" viewBox="0 0 375 299.999988" height="400" preserveAspectRatio="xMidYMid meet" version="1.0"><defs><clipPath id="636d0ea3d0"><path d="M 19.359375 15.238281 L 355 15.238281 L 355 270 L 19.359375 270 Z M 19.359375 15.238281 " clip-rule="nonzero"/></clipPath></defs><g clip-path="url(#636d0ea3d0)"><path fill="#1e3f48" d="M 351.828125 177.953125 C 347.148438 179.121094 342.347656 179.203125 337.574219 179.480469 C 330.207031 179.902344 322.855469 180.453125 315.585938 181.804688 C 314.410156 182.023438 313.6875 182.511719 312.929688 183.425781 C 303.632812 194.695312 296.238281 207.3125 287.761719 219.164062 C 277.832031 233.054688 267.839844 246.890625 257.511719 260.488281 C 255.351562 263.332031 253.875 266.738281 250.578125 268.617188 C 248.710938 269.679688 246.910156 270.167969 244.636719 269.796875 C 218.046875 265.453125 191.585938 260.324219 164.839844 256.953125 C 149.488281 255.015625 134.410156 251.410156 119.140625 248.960938 C 107.222656 247.050781 95.167969 245.898438 83.402344 243.152344 C 73.128906 240.753906 63.078125 237.371094 52.769531 235.15625 C 44.351562 233.347656 36.296875 230.523438 28.121094 228.007812 C 26.433594 227.488281 25.167969 226.410156 25.074219 224.679688 C 24.75 218.769531 21.945312 213.558594 20.574219 207.949219 C 19.371094 203.007812 19.558594 198.382812 23.417969 194.617188 C 30.125 188.074219 35.285156 180.351562 40.5 172.652344 C 41.726562 170.835938 43.058594 169.046875 44.582031 167.476562 C 56.78125 154.894531 66.066406 139.898438 78.019531 127.105469 C 80.515625 124.433594 82.257812 121.0625 84.394531 118.046875 C 85.539062 116.433594 85.667969 114.945312 84.773438 113.070312 C 82.921875 109.203125 81.523438 105.140625 80.410156 100.992188 C 79.351562 97.054688 80.453125 95.261719 84.371094 94.5 C 91.378906 93.140625 91.253906 93.125 92.121094 85.328125 C 92.554688 81.421875 92.289062 77.335938 94.601562 73.75 C 95.277344 72.699219 95.941406 71.890625 96.984375 71.25 C 106.855469 65.160156 117.777344 62.277344 129.089844 60.519531 C 135.421875 59.539062 141.769531 58.929688 146.941406 59.238281 C 160.609375 59.128906 172.894531 60.089844 184.683594 64.410156 C 185.898438 64.855469 186.324219 64.515625 186.664062 63.542969 C 187.832031 60.199219 190.324219 57.894531 192.765625 55.511719 C 194.765625 53.5625 196.65625 51.492188 198.511719 49.394531 C 202.566406 44.816406 206.847656 40.613281 212.230469 37.464844 C 218.847656 33.59375 224.867188 28.789062 231.78125 25.289062 C 240.25 21.003906 249.332031 19.492188 258.453125 17.867188 C 265.136719 16.675781 271.878906 15.855469 278.652344 15.609375 C 286.167969 15.335938 287.949219 16.566406 290.75 22.886719 C 293.054688 28.082031 294.867188 33.492188 297.148438 38.699219 C 305.136719 56.929688 314.535156 74.429688 324.71875 91.507812 C 328.933594 98.570312 331.679688 106.316406 335.503906 113.5625 C 338.394531 119.039062 341.265625 124.507812 344.332031 129.890625 C 347.722656 135.835938 347.644531 135.632812 341.421875 138.90625 C 339.402344 139.972656 338.910156 140.4375 340.550781 142.273438 C 343.007812 145.027344 345.15625 148.058594 347.554688 150.871094 C 349.808594 153.515625 350.273438 156.542969 349.738281 159.800781 C 349.292969 162.496094 349.585938 164.859375 351.421875 167.082031 C 352.875 168.839844 353.933594 170.941406 354.609375 173.15625 C 355.386719 175.703125 354.425781 177.304688 351.828125 177.953125 Z M 351.828125 177.953125 " fill-opacity="1" fill-rule="nonzero"/></g><path fill="#767fa7" d="M 349.058594 169.65625 C 351.527344 174.054688 352.800781 174.9375 346.976562 175.613281 C 343.710938 175.988281 340.421875 176.328125 337.140625 176.355469 C 320.207031 176.507812 304.042969 180.390625 288.046875 185.679688 C 275.273438 189.90625 262.707031 194.5625 250.605469 200.4375 C 246.003906 202.671875 241.183594 201.328125 235.84375 201.882812 C 223.59375 200.671875 210.734375 201.574219 197.898438 202.4375 C 186.28125 203.21875 174.773438 205.152344 163.230469 206.707031 C 154.121094 207.933594 145.253906 210.023438 136.347656 212.121094 C 131.355469 213.296875 130.777344 212.769531 129.339844 208.03125 C 127.308594 201.339844 124.765625 194.820312 121.398438 188.703125 C 115.84375 178.609375 113.101562 167.324219 107.894531 157.132812 C 99.71875 141.121094 94.460938 123.859375 86.398438 107.8125 C 85.199219 105.421875 84.554688 102.753906 83.484375 100.289062 C 82.855469 98.84375 83.296875 98.265625 84.671875 98.023438 C 86.144531 97.765625 87.613281 97.496094 89.082031 97.234375 C 90.082031 97.058594 90.585938 97.261719 90.976562 98.445312 C 92.414062 102.785156 94.160156 107.023438 95.648438 111.351562 C 99.226562 121.734375 104.3125 131.433594 109.066406 141.28125 C 111.152344 145.597656 111.792969 150.386719 113.921875 154.71875 C 118.667969 164.355469 123.15625 174.113281 126.792969 184.261719 C 128.675781 189.511719 129.828125 194.996094 132.199219 200.082031 C 133.769531 203.449219 134.597656 204.082031 138.523438 203.390625 C 142.835938 202.628906 147.125 201.730469 151.414062 200.859375 C 171.378906 196.820312 191.410156 193.355469 211.882812 193.453125 C 220.949219 193.496094 229.683594 195.554688 238.410156 197.636719 C 241.621094 198.402344 244.503906 198.203125 247.246094 196.332031 C 258.933594 188.347656 271.773438 182.71875 285.066406 178.09375 C 296.195312 174.226562 307.59375 171.375 319.335938 170.152344 C 323.601562 169.707031 327.902344 169.652344 332.1875 169.425781 C 337.253906 169.160156 342.371094 170.042969 347.390625 168.835938 C 348.304688 168.617188 348.699219 169.015625 349.058594 169.65625 Z M 349.058594 169.65625 " fill-opacity="1" fill-rule="nonzero"/><path fill="#e48d7a" d="M 42.894531 201.890625 C 37.148438 200.425781 31.203125 199.742188 25.253906 198.710938 C 46.335938 172.132812 67.195312 145.847656 88.015625 119.601562 C 90.390625 124.160156 92.125 129.46875 94.261719 134.609375 C 94.585938 135.386719 94.292969 135.894531 93.886719 136.515625 C 80.175781 157.691406 65.75 178.363281 50.789062 198.671875 C 48.679688 201.539062 46.710938 202.867188 42.894531 201.890625 Z M 268.304688 196.234375 C 262.285156 198.550781 256.277344 200.910156 250.238281 203.175781 C 246.691406 204.507812 243.011719 205.71875 239.210938 205.167969 C 236.929688 204.835938 236.019531 205.742188 235.046875 207.4375 C 229.800781 216.601562 221.902344 220.789062 211.371094 219.765625 C 206.527344 219.296875 202.265625 216.996094 197.859375 215.171875 C 194.667969 213.851562 192.199219 211.578125 190.78125 208.566406 C 189.828125 206.539062 188.636719 206.351562 186.847656 206.542969 C 174.867188 207.828125 163.019531 210.019531 151.109375 211.808594 C 145.328125 212.675781 139.894531 215.339844 133.875 215.125 C 128.742188 214.941406 127.867188 214.390625 126.457031 209.613281 C 125.015625 204.734375 123.109375 200.027344 121.082031 195.371094 C 117.105469 186.25 112.335938 177.503906 109.109375 168.011719 C 107.113281 162.140625 104.574219 156.367188 101.503906 150.941406 C 88.121094 168.414062 80.085938 189.242188 65.183594 205.699219 C 71.886719 207.175781 78.21875 208.449219 84.488281 209.976562 C 95.671875 212.703125 106.636719 216.296875 117.941406 218.574219 C 130.253906 221.054688 142.75 222.078125 155.203125 223.484375 C 168.746094 225.015625 182.355469 225.949219 195.828125 228.136719 C 204.761719 229.589844 213.882812 229.769531 222.726562 231.828125 C 227.980469 233.050781 233.253906 233.859375 238.636719 234.203125 C 240.117188 234.300781 240.742188 233.898438 241.449219 232.769531 C 243.035156 230.234375 244.621094 227.675781 246.46875 225.332031 C 253.949219 215.84375 261.53125 206.433594 269.074219 196.996094 C 269.757812 196.621094 270.296875 196.109375 270.652344 195.308594 C 269.691406 195.289062 268.941406 195.601562 268.304688 196.234375 Z M 268.304688 196.234375 " fill-opacity="1" fill-rule="nonzero"/><path fill="#daa972" d="M 301.335938 186.785156 C 295.683594 195.246094 290.007812 203.707031 283.929688 211.859375 C 279.398438 217.9375 273.898438 223.296875 269.425781 229.414062 C 264.824219 235.707031 259.273438 241.230469 255.054688 247.824219 C 252.960938 251.097656 250.460938 254.113281 248.085938 257.203125 C 247.355469 258.152344 246.4375 259.082031 245.058594 258.742188 C 243.679688 258.398438 243.410156 257.1875 243.164062 255.96875 C 242.078125 250.601562 240.855469 245.253906 239.894531 239.863281 C 239.476562 237.503906 238.671875 236.328125 236.046875 236.640625 C 234.1875 236.859375 232.199219 236.832031 230.378906 236.421875 C 219.769531 234.023438 208.949219 233.109375 198.222656 231.527344 C 180.167969 228.867188 162.023438 227.171875 143.902344 225.300781 C 126.800781 223.539062 110.078125 220.230469 93.675781 215.214844 C 84.191406 212.316406 74.488281 210.484375 64.65625 208.523438 C 65.886719 216.929688 67.066406 225.0625 68.28125 233.1875 C 68.511719 234.75 69.183594 235.75 71.03125 236.117188 C 74.832031 236.875 78.527344 238.148438 82.320312 238.960938 C 94.226562 241.511719 106.328125 242.859375 118.34375 244.714844 C 135 247.289062 151.4375 251.179688 168.171875 253.207031 C 193.738281 256.308594 219.015625 261.171875 244.371094 265.527344 C 248.589844 266.25 250.679688 264.847656 252.691406 261.792969 C 256.210938 256.453125 259.785156 251.15625 264.003906 246.316406 C 269.730469 239.75 274.0625 232.171875 279.050781 225.070312 C 288.414062 211.753906 297.945312 198.558594 307.40625 185.3125 C 307.695312 184.914062 308.058594 184.539062 307.789062 183.8125 C 305.144531 183.65625 303.039062 184.242188 301.335938 186.785156 Z M 229.632812 252.074219 C 228.714844 253.421875 229.023438 255.851562 226.652344 255.59375 C 223.441406 255.152344 220.398438 255.007812 217.574219 254.386719 C 214.652344 253.75 212.703125 250.855469 210.683594 248.554688 C 210.492188 248.335938 210.539062 247.785156 210.648438 247.445312 C 211.09375 246 215.992188 242.984375 217.539062 243.070312 C 220.113281 243.21875 222.617188 243.992188 225.234375 243.808594 C 227.636719 243.644531 228.289062 246.097656 229.839844 247.226562 C 232.007812 248.804688 230.746094 250.441406 229.632812 252.074219 Z M 53.488281 226.542969 C 54.019531 228.105469 54.308594 229.753906 54.765625 231.605469 C 47.660156 230.34375 41.0625 228.460938 34.5 226.027344 C 30.320312 224.476562 28.238281 222.710938 27.753906 218.207031 C 27.386719 214.804688 25.785156 211.535156 24.742188 208.199219 C 24.503906 207.4375 24.292969 206.667969 24.113281 205.890625 C 22.910156 200.726562 23.226562 200.460938 28.207031 201.515625 C 33.746094 202.683594 39.316406 203.707031 44.890625 204.710938 C 45.988281 204.910156 46.742188 205.199219 47.046875 206.371094 C 48.816406 213.21875 51.214844 219.859375 53.488281 226.542969 Z M 192.566406 205.980469 C 205.710938 205.265625 218.535156 204.46875 231.71875 204.921875 C 227.003906 214.324219 217.335938 218.148438 206.945312 214.675781 C 203.300781 213.457031 199.417969 212.632812 196.234375 210.257812 C 194.882812 209.25 193.660156 208.074219 192.566406 205.980469 Z M 165.613281 125.679688 C 169.480469 135.890625 173.402344 146.078125 177.335938 156.339844 C 174.003906 157.703125 170.652344 156.871094 167.449219 157.4375 C 162.324219 158.34375 157.421875 159.910156 152.828125 162.34375 C 151.121094 163.242188 150.390625 162.988281 149.765625 161.070312 C 146.839844 152.085938 143.6875 143.175781 140.066406 134.445312 C 139.015625 131.902344 137.632812 129.503906 136.429688 127.097656 C 144.839844 124.40625 153.222656 123.089844 161.84375 123.140625 C 163.90625 123.152344 164.921875 123.851562 165.613281 125.679688 Z M 165.613281 125.679688 " fill-opacity="1" fill-rule="nonzero"/><path fill="#e5dad8" d="M 99.65625 86.234375 C 103.890625 98.160156 109.769531 109.402344 114.109375 121.28125 C 117.023438 129.25 120.152344 137.128906 124.484375 144.449219 C 126.941406 148.59375 128.789062 152.972656 130.234375 157.550781 C 132.722656 165.421875 136.175781 172.96875 138.082031 181.046875 C 138.484375 182.753906 139.464844 184.324219 140.03125 185.621094 C 172.394531 170.617188 205.171875 168.082031 239.160156 179.824219 C 237.691406 175.050781 235.847656 170.460938 233.539062 166.054688 C 226.835938 153.238281 220.328125 140.308594 213.375 127.632812 C 206.289062 114.71875 202.203125 100.554688 195.980469 87.292969 C 193.648438 82.320312 190.667969 77.671875 188.578125 72.632812 C 187.230469 69.378906 185.191406 67.847656 182.007812 67.03125 C 163.5625 62.285156 144.992188 61.570312 126.265625 65.058594 C 116.40625 66.894531 106.914062 69.714844 98.210938 74.890625 C 96.464844 75.929688 96.089844 76.820312 96.925781 78.679688 C 98.015625 81.117188 98.761719 83.710938 99.65625 86.234375 Z M 178.480469 159.789062 C 169.851562 160.027344 161.554688 161.722656 153.539062 165.015625 C 149.394531 166.71875 148.949219 166.210938 147.152344 162.015625 C 142.492188 151.132812 139.335938 139.65625 134.136719 128.980469 C 132.582031 125.785156 133.257812 124.945312 136.789062 124.214844 C 141.046875 123.332031 145.042969 121.402344 149.441406 121.007812 C 152.503906 120.734375 155.554688 120.292969 158.609375 119.925781 C 158.613281 120.035156 158.617188 120.140625 158.625 120.246094 C 160.511719 120.246094 162.402344 120.261719 164.292969 120.242188 C 166.640625 120.21875 167.550781 121.820312 168.230469 123.695312 C 171.246094 132.007812 174.253906 140.324219 177.28125 148.632812 C 178.300781 151.429688 179.296875 154.238281 180.433594 156.984375 C 181.3125 159.105469 180.375 159.738281 178.480469 159.789062 Z M 221.597656 158.714844 C 221.265625 160.332031 219.785156 159.84375 218.882812 159.621094 C 215.015625 158.664062 211.121094 158.101562 207.152344 157.664062 C 203.105469 157.21875 199.210938 157.710938 195.285156 158.21875 C 193.6875 158.425781 192.113281 158.433594 190.527344 158.480469 C 189.695312 158.503906 188.808594 158.339844 188.804688 157.308594 C 188.800781 156.515625 189.542969 156.195312 190.269531 156.078125 C 194.574219 155.386719 198.882812 154.703125 202.582031 154.113281 C 208.765625 154.789062 214.316406 155.21875 219.644531 156.992188 C 220.53125 157.289062 221.898438 157.261719 221.597656 158.714844 Z M 213.925781 147.023438 C 215.0625 147.410156 216.542969 147.710938 216.09375 149.277344 C 215.691406 150.679688 214.179688 150.210938 213.222656 149.972656 C 207.886719 148.660156 202.398438 148.480469 197.078125 147.578125 C 193.527344 148.015625 190.074219 148.570312 186.582031 148.347656 C 185.800781 148.300781 184.558594 148.746094 184.507812 147.34375 C 184.460938 146.074219 185.761719 146.046875 186.480469 145.996094 C 192.191406 145.582031 197.851562 143.960938 203.652344 145.308594 C 207.035156 146.089844 210.589844 145.894531 213.925781 147.023438 Z M 207.96875 133.421875 C 207.964844 134.367188 207.257812 134.5 206.523438 134.519531 C 205.824219 134.539062 205.128906 134.523438 203.746094 134.523438 C 197.914062 132.925781 191.574219 134.308594 185.21875 135.566406 C 184.195312 135.769531 182.769531 136.003906 182.507812 134.507812 C 182.207031 132.824219 183.601562 132.714844 184.832031 132.546875 C 188.660156 132.019531 192.472656 131.328125 196.316406 130.9375 C 199.816406 130.578125 203.203125 131.84375 206.675781 132.046875 C 207.46875 132.09375 207.972656 132.597656 207.96875 133.421875 Z M 199.390625 120.09375 C 200.964844 120.160156 202.558594 120.582031 203.832031 121.648438 C 204.363281 122.09375 204.84375 122.667969 204.40625 123.460938 C 204.070312 124.058594 203.492188 124.320312 202.878906 124.117188 C 195 121.519531 186.859375 122.761719 178.828125 122.425781 C 178.527344 122.414062 178.226562 122.429688 177.929688 122.410156 C 177.082031 122.355469 176.253906 122.125 176.148438 121.164062 C 176.019531 119.992188 177 119.539062 177.867188 119.507812 C 180.558594 119.398438 183.257812 119.46875 185.089844 119.46875 C 190.464844 118.960938 194.90625 119.90625 199.390625 120.09375 Z M 192.179688 106 C 193.292969 106.320312 194.410156 106.78125 194.007812 108.21875 C 193.648438 109.515625 192.421875 109.347656 191.488281 109.113281 C 182.550781 106.890625 173.425781 107.039062 164.398438 107.640625 C 152.617188 108.421875 140.699219 108.414062 129.1875 111.640625 C 126.898438 112.28125 124.707031 113.269531 122.421875 113.9375 C 121.636719 114.167969 120.398438 114.402344 120.015625 113.375 C 119.570312 112.175781 120.917969 112.066406 121.605469 111.703125 C 127.671875 108.488281 134.21875 106.871094 140.996094 106.289062 C 151.410156 105.398438 161.792969 104.019531 173.378906 104.371094 C 178.371094 104.28125 184.453125 104.289062 190.449219 105.570312 C 191.027344 105.695312 191.609375 105.835938 192.179688 106 Z M 189.117188 91.644531 C 188.738281 93.542969 187.015625 92.855469 185.636719 92.609375 C 172.402344 90.242188 159.246094 91.542969 146.0625 93.246094 C 137.074219 94.40625 128.179688 95.902344 119.492188 98.515625 C 119.023438 98.65625 118.484375 98.902344 118.058594 98.789062 C 117.367188 98.605469 116.253906 98.746094 116.222656 97.699219 C 116.203125 96.90625 117.078125 96.824219 117.738281 96.566406 C 127.0625 92.902344 136.859375 91.375 146.691406 89.917969 C 154.195312 88.808594 161.707031 88 169.582031 88.128906 C 175.011719 87.773438 180.65625 88.402344 186.265625 89.386719 C 187.601562 89.625 189.488281 89.773438 189.117188 91.644531 Z M 113.59375 80.910156 C 119.878906 76.886719 127.085938 75.652344 134.21875 74.425781 C 139.5 73.519531 144.863281 72.929688 150.261719 73.058594 C 161.066406 73.132812 171.640625 74.933594 182.148438 77.277344 C 183.460938 77.570312 185.113281 77.902344 184.816406 79.457031 C 184.453125 81.335938 182.785156 80.738281 181.375 80.417969 C 170.285156 77.898438 159.09375 75.765625 147.679688 76.367188 C 136.4375 76.964844 125.300781 78.492188 114.917969 83.363281 C 113.984375 83.800781 112.785156 84.691406 112.039062 83.328125 C 111.273438 81.925781 112.738281 81.457031 113.59375 80.910156 Z M 344.152344 155.992188 C 345.175781 156.183594 346.460938 156.019531 346.347656 157.75 C 346.222656 159.566406 344.890625 159.0625 343.910156 159.054688 C 339.71875 159.023438 335.535156 159.007812 331.363281 159.605469 C 311.511719 162.453125 291.578125 165.070312 273.101562 173.539062 C 265.652344 176.953125 257.554688 179.253906 251.378906 185.128906 C 250.417969 186.042969 249.167969 186.671875 248.421875 188.671875 C 278.691406 170.222656 311.328125 162.601562 346.058594 161.648438 C 345.261719 166.289062 345.257812 166.335938 340.539062 166.128906 C 315.847656 165.027344 292.535156 170.445312 270.003906 180.371094 C 262.109375 183.847656 254.425781 187.585938 247.527344 192.664062 C 243.210938 195.839844 238.957031 194.949219 234.84375 193.542969 C 219.027344 188.152344 203.003906 189.484375 186.871094 191.191406 C 170.476562 192.929688 154.507812 196.78125 138.476562 200.367188 C 138.113281 200.449219 137.710938 200.378906 137.277344 200.378906 C 137.359375 197.960938 138.453125 196.828125 140.710938 195.886719 C 152.429688 191.007812 164.460938 187.332031 177.066406 185.738281 C 187.652344 184.398438 198.28125 182.761719 208.964844 183.851562 C 216.859375 184.65625 224.566406 186.765625 232.261719 188.757812 C 235.179688 189.515625 238.09375 190.824219 241.355469 189.75 C 230.632812 185.378906 219.558594 182.394531 207.976562 181.222656 C 196.25 180.03125 184.683594 181.757812 173.152344 183.269531 C 161.464844 184.796875 150.402344 188.707031 139.617188 193.980469 C 139.378906 191.671875 140.601562 190.390625 142.167969 189.253906 C 147.949219 185.066406 154.738281 183.445312 161.402344 181.351562 C 176.207031 176.699219 191.328125 175.417969 206.664062 176.710938 C 217.988281 177.667969 229.328125 178.933594 239.53125 184.714844 C 241.15625 185.636719 242.855469 185.664062 244.71875 185.085938 C 249.527344 183.59375 253.710938 180.886719 258.105469 178.574219 C 276.40625 168.933594 295.304688 160.832031 315.882812 157.515625 C 324.34375 156.152344 332.894531 155.308594 341.503906 155.597656 C 342.390625 155.628906 343.273438 155.828125 344.152344 155.992188 Z M 247.042969 234.996094 C 246.667969 235.566406 245.710938 236.320312 246.808594 237 C 247.703125 237.558594 248.355469 236.738281 248.777344 236.113281 C 251.96875 231.359375 256.078125 227.390625 259.742188 223.039062 C 266.808594 214.640625 274.011719 206.347656 280.054688 197.125 C 281.683594 194.640625 284.320312 192.941406 285.964844 190.371094 C 286.597656 189.375 287.917969 189.183594 289.71875 189.136719 C 286.472656 193.632812 283.941406 197.925781 280.75 201.785156 C 270.898438 213.707031 260.507812 225.1875 251.136719 237.507812 C 250.109375 238.855469 249.21875 240.308594 248.308594 241.738281 C 247.914062 242.359375 247.707031 243.207031 248.363281 243.640625 C 249.03125 244.082031 249.695312 243.480469 250.152344 242.941406 C 251.761719 241.03125 253.503906 239.203125 254.898438 237.140625 C 258.824219 231.332031 263.601562 226.207031 267.910156 220.703125 C 273.316406 213.800781 279.296875 207.347656 284.875 200.574219 C 287.980469 196.800781 290.839844 192.8125 293.664062 188.820312 C 294.949219 187.011719 296.59375 186.328125 298.488281 186.175781 C 282.671875 209.996094 262.800781 230.6875 246.144531 254.578125 C 244.929688 248.894531 243.867188 243.859375 242.773438 238.828125 C 242.441406 237.308594 243.109375 236.183594 243.90625 234.972656 C 249.203125 226.945312 255.390625 219.609375 261.4375 212.175781 C 266.097656 206.445312 269.941406 200.097656 275.085938 194.71875 C 276.933594 192.785156 278.980469 192.253906 281.410156 191.453125 C 272.519531 203.417969 263.484375 214.902344 253.734375 225.808594 C 251.191406 228.65625 249.132812 231.835938 247.042969 234.996094 Z M 95.117188 87.273438 C 94.605469 85.546875 95.175781 83.789062 95.664062 82.0625 C 99.132812 94.667969 105.339844 106.109375 109.679688 118.265625 C 113.570312 129.164062 118.28125 139.648438 123.621094 149.949219 C 128.222656 158.828125 131.25 168.527344 133.957031 178.214844 C 134.847656 181.410156 135.949219 184.453125 137.460938 187.390625 C 137.945312 188.332031 138.902344 189.386719 137.519531 190.984375 C 134.960938 184.175781 131.046875 178.300781 128.757812 171.652344 C 127.078125 166.765625 125.203125 161.9375 122.726562 157.421875 C 117.890625 148.597656 114.335938 139.246094 110.949219 129.820312 C 108.535156 123.097656 105.460938 116.664062 102.695312 110.09375 C 99.566406 102.671875 97.394531 94.960938 95.117188 87.273438 Z M 94.832031 100.511719 C 93.96875 97.621094 93.671875 94.894531 94.382812 91.824219 C 94.953125 93.683594 95.59375 95.523438 96.074219 97.410156 C 97.753906 103.984375 100.207031 110.296875 103.246094 116.316406 C 108.003906 125.746094 111.066406 135.820312 114.796875 145.632812 C 117.285156 152.183594 121.09375 158.03125 123.761719 164.460938 C 124.363281 165.914062 124.972656 167.386719 125.40625 168.863281 C 127.757812 176.847656 132.25 183.867188 135.398438 191.492188 C 136.40625 193.925781 136.582031 196 134.925781 198.351562 C 132.382812 192.75 130.945312 186.875 128.828125 181.257812 C 125.132812 171.449219 120.140625 162.265625 116.054688 152.660156 C 113.214844 145.996094 110.78125 139.167969 107.625 132.628906 C 102.609375 122.230469 98.140625 111.613281 94.832031 100.511719 Z M 345.386719 153 C 340.078125 152.550781 335.292969 152.597656 330.476562 152.886719 C 313.726562 153.894531 297.671875 157.578125 282.171875 164.082031 C 272.792969 168.019531 263.402344 171.84375 254.683594 177.136719 C 254.167969 177.769531 253.507812 178.136719 252.710938 178.304688 C 252.480469 177.355469 253.164062 177.238281 253.769531 177.050781 C 256.652344 174.246094 259.855469 171.863281 263.4375 170.054688 C 273.585938 164.933594 283.636719 159.601562 293.964844 154.875 C 303.203125 150.648438 313.179688 148.402344 322.832031 145.289062 C 326.621094 144.066406 330.4375 142.929688 334.191406 141.613281 C 335.550781 141.132812 336.097656 141.367188 336.988281 142.589844 C 339.503906 146.042969 342.335938 149.261719 345.386719 153 Z M 340.976562 131.480469 C 337.722656 126.441406 335.105469 121.050781 332.214844 115.808594 C 328.011719 108.199219 324.851562 100.097656 320.472656 92.554688 C 309.050781 72.871094 297.675781 53.140625 289.835938 31.628906 C 288.472656 27.890625 287.324219 24.042969 285.214844 20.601562 C 284.5 19.433594 283.878906 18.816406 282.175781 19.066406 C 276.457031 19.890625 270.636719 20.085938 264.941406 21.019531 C 255.421875 22.578125 245.785156 23.617188 236.765625 27.550781 C 229.195312 30.851562 222.488281 35.480469 215.738281 40.113281 C 212.621094 42.253906 209.167969 43.878906 206.453125 46.636719 C 201.757812 51.40625 197.433594 56.515625 192.394531 60.976562 C 188.394531 64.511719 188.339844 66.40625 190.636719 71.101562 C 191.117188 72.085938 191.660156 73.046875 192.246094 73.972656 C 197.292969 81.914062 201.582031 90.3125 204.625 99.160156 C 210.285156 115.601562 219.117188 130.476562 226.894531 145.847656 C 232.78125 157.480469 239.589844 168.632812 243.59375 181.320312 C 244.054688 181.0625 244.425781 180.925781 244.714844 180.6875 C 248.566406 177.511719 252.332031 174.226562 256.261719 171.15625 C 262.363281 166.382812 269.644531 163.707031 276.449219 160.214844 C 283.976562 156.351562 291.09375 151.554688 299.21875 149.011719 C 307.390625 146.460938 315.425781 143.492188 323.726562 141.335938 C 329.011719 139.960938 334.15625 138.023438 339.320312 136.21875 C 342.953125 134.953125 343.023438 134.65625 340.976562 131.480469 Z M 203.8125 69.082031 C 203.246094 68.285156 204.039062 67.585938 204.636719 67.0625 C 213.785156 59.054688 222.183594 49.914062 233.519531 44.957031 C 243.972656 40.386719 254.859375 36.824219 266.003906 34.210938 C 267.613281 33.832031 269.382812 34.160156 271.078125 34.160156 C 271.078125 34.082031 271.078125 34.003906 271.078125 33.929688 C 272.378906 33.929688 273.683594 33.851562 274.972656 33.953125 C 275.972656 34.035156 277.441406 33.691406 277.449219 35.363281 C 277.457031 36.984375 275.953125 36.730469 274.980469 36.894531 C 273.8125 37.089844 272.589844 37.078125 271.394531 37.03125 C 266.527344 36.84375 261.925781 38.015625 257.378906 39.585938 C 251.554688 41.601562 245.710938 43.550781 239.867188 45.519531 C 231.695312 48.269531 224.695312 52.960938 218.394531 58.734375 C 214.484375 62.320312 210.285156 65.523438 206.09375 68.75 C 205.421875 69.265625 204.578125 70.15625 203.8125 69.082031 Z M 211.914062 85.652344 C 211.265625 85.914062 210.230469 86.164062 209.804688 85.230469 C 209.402344 84.34375 210.324219 84.117188 210.871094 83.726562 C 213.320312 81.984375 215.394531 79.835938 217.546875 77.75 C 227.273438 68.3125 238.457031 61.191406 251.386719 56.972656 C 254.699219 55.890625 258 54.828125 261.15625 53.304688 C 267.738281 50.132812 275.726562 48.363281 284.28125 48.089844 C 284.980469 48.128906 286.109375 48.132812 286.359375 49.371094 C 286.660156 50.886719 285.378906 51.257812 284.332031 51.414062 C 281.382812 51.855469 278.414062 52.226562 275.445312 52.460938 C 267.984375 53.054688 261.902344 57.566406 254.945312 59.589844 C 240.589844 63.773438 228.152344 71.214844 217.554688 81.777344 C 215.929688 83.398438 214.058594 84.78125 211.914062 85.652344 Z M 222.902344 101.316406 C 222.210938 102.355469 221.246094 103.863281 219.847656 102.863281 C 218.210938 101.699219 219.640625 100.511719 220.394531 99.335938 C 228.550781 86.585938 241.324219 79.664062 254.03125 72.746094 C 263.824219 67.414062 274.269531 63.59375 285.078125 60.847656 C 287.660156 60.191406 290.367188 60.015625 292.667969 59.265625 C 293.738281 59.332031 294.625 59.210938 294.816406 60.316406 C 294.976562 61.226562 294.566406 61.890625 293.773438 62.265625 C 293.148438 62.566406 292.476562 62.921875 291.808594 62.960938 C 285.964844 63.292969 280.710938 65.90625 275.140625 67.300781 C 267.953125 69.097656 261.546875 72.914062 254.921875 76.082031 C 242.398438 82.070312 230.824219 89.394531 222.902344 101.316406 Z M 227.335938 117.152344 C 226.226562 116.238281 228.078125 114.792969 228.777344 113.671875 C 233.773438 105.644531 241.390625 100.328125 248.867188 95.078125 C 255.128906 90.679688 261.953125 87.035156 268.738281 83.460938 C 277.355469 78.921875 287.007812 78.183594 296.402344 76.625 C 297.621094 76.386719 299.089844 76.039062 299.328125 77.683594 C 299.574219 79.359375 298.074219 79.625 296.726562 79.851562 C 287.90625 81.355469 278.695312 81.960938 270.828125 86.484375 C 260.835938 92.230469 250.300781 97.203125 241.65625 105.15625 C 238.203125 108.335938 234.414062 111.136719 231.628906 114.984375 C 231.511719 115.148438 231.375 115.296875 231.234375 115.4375 C 230.105469 116.527344 228.511719 118.125 227.335938 117.152344 Z M 231.976562 133.222656 C 231.320312 133.125 230.839844 132.800781 230.667969 132.175781 C 230.5 131.566406 230.644531 131.105469 231.296875 130.707031 C 244.351562 122.808594 256.144531 113.003906 269.460938 105.488281 C 275.832031 101.890625 282.636719 99.328125 289.390625 96.671875 C 293.667969 94.992188 298.4375 95.601562 302.9375 94.789062 C 304.5 94.507812 306.078125 94.316406 307.570312 94.09375 C 308.707031 94.183594 310.128906 93.84375 310.265625 95.375 C 310.390625 96.722656 309.207031 97.117188 308.046875 97.296875 C 304.707031 97.8125 301.382812 98.617188 298.027344 98.804688 C 288.539062 99.34375 280.410156 103.792969 272.4375 108.125 C 263 113.257812 253.820312 118.945312 245.359375 125.707031 C 242.183594 128.242188 238.523438 130.179688 235.078125 132.378906 C 234.136719 132.980469 233.144531 133.402344 231.976562 133.222656 Z M 241.140625 146.394531 C 240.480469 146.84375 239.84375 147.328125 239.203125 147.800781 C 238.6875 148.179688 238.160156 148.433594 237.621094 147.867188 C 237.109375 147.332031 237.214844 146.800781 237.683594 146.289062 C 238.359375 145.554688 238.996094 144.785156 239.707031 144.085938 C 250.402344 133.566406 262.839844 125.9375 277.03125 121.023438 C 285.570312 118.066406 293.613281 113.789062 302.328125 111.226562 C 305.773438 110.210938 309.148438 109.03125 312.796875 109.085938 C 313.894531 109.136719 314.992188 109.179688 316.085938 109.242188 C 317.015625 109.292969 317.609375 109.800781 317.660156 110.71875 C 317.710938 111.683594 317.105469 112.121094 316.175781 112.226562 C 295.070312 114.609375 276.855469 124.925781 258.089844 133.648438 C 251.628906 136.648438 246.984375 142.394531 241.140625 146.394531 Z M 326.5625 121.230469 C 326.265625 122.703125 324.886719 122.726562 323.949219 122.761719 C 317.179688 123.03125 310.976562 125.636719 304.539062 127.273438 C 302.320312 127.835938 300.058594 128.390625 298.117188 129.632812 C 286.636719 136.984375 273.695312 141.316406 261.597656 147.390625 C 256.386719 150.007812 251.289062 152.628906 247.351562 157.0625 C 247.023438 157.429688 246.625 157.753906 246.21875 158.03125 C 245.519531 158.507812 244.683594 158.835938 244.074219 158.070312 C 243.535156 157.390625 243.726562 156.6875 244.386719 155.96875 C 247.839844 152.199219 251.429688 148.675781 256.097656 146.328125 C 265.445312 141.632812 275.09375 137.609375 284.628906 133.335938 C 286.082031 132.683594 287.644531 132.171875 288.9375 131.277344 C 299.074219 124.273438 310.796875 122.109375 322.574219 120.109375 C 323.546875 119.941406 324.566406 120 325.5625 120.03125 C 326.269531 120.054688 326.632812 120.488281 326.5625 121.230469 Z M 326.5625 121.230469 " fill-opacity="1" fill-rule="nonzero"/></svg>