<svg xmlns="http://www.w3.org/2000/svg" xmlns:xlink="http://www.w3.org/1999/xlink" width="400" zoomAndPan="magnify" viewBox="0 0 300 299.999988" height="400" preserveAspectRatio="xMidYMid meet" version="1.0"><path fill="#000000" d="M 201.65625 35.597656 L 274.089844 35.597656 C 276.917969 35.597656 279.214844 33.304688 279.214844 30.472656 C 279.214844 27.644531 276.917969 25.347656 274.089844 25.347656 L 201.65625 25.347656 C 198.828125 25.347656 196.53125 27.644531 196.53125 30.472656 C 196.53125 33.304688 198.828125 35.597656 201.65625 35.597656 Z M 201.65625 35.597656 " fill-opacity="1" fill-rule="evenodd"/><path fill="#000000" d="M 201.65625 57.871094 L 274.089844 57.871094 C 276.917969 57.871094 279.214844 55.574219 279.214844 52.746094 C 279.214844 49.917969 276.917969 47.621094 274.089844 47.621094 L 201.65625 47.621094 C 198.828125 47.621094 196.53125 49.917969 196.53125 52.746094 C 196.53125 55.574219 198.828125 57.871094 201.65625 57.871094 Z M 201.65625 57.871094 " fill-opacity="1" fill-rule="evenodd"/><path fill="#000000" d="M 201.65625 80.140625 L 274.089844 80.140625 C 276.917969 80.140625 279.214844 77.847656 279.214844 75.015625 C 279.214844 72.1875 276.917969 69.890625 274.089844 69.890625 L 201.65625 69.890625 C 198.828125 69.890625 196.53125 72.1875 196.53125 75.015625 C 196.53125 77.847656 198.828125 80.140625 201.65625 80.140625 Z M 201.65625 80.140625 " fill-opacity="1" fill-rule="evenodd"/><path fill="#000000" d="M 201.65625 102.414062 L 274.089844 102.414062 C 276.917969 102.414062 279.214844 100.117188 279.214844 97.289062 C 279.214844 94.460938 276.917969 92.164062 274.089844 92.164062 L 201.65625 92.164062 C 198.828125 92.164062 196.53125 94.460938 196.53125 97.289062 C 196.53125 100.117188 198.828125 102.414062 201.65625 102.414062 Z M 201.65625 102.414062 " fill-opacity="1" fill-rule="evenodd"/><path fill="#000000" d="M 299.910156 222.351562 C 299.910156 219.519531 297.617188 217.226562 294.785156 217.226562 L 118.875 217.226562 C 116.042969 217.226562 113.75 219.519531 113.75 222.351562 L 113.75 294.785156 C 113.75 297.617188 116.042969 299.910156 118.875 299.910156 L 294.785156 299.910156 C 297.617188 299.910156 299.910156 297.617188 299.910156 294.785156 Z M 124 227.476562 L 124 289.660156 L 289.660156 289.660156 L 289.660156 227.476562 Z M 124 227.476562 " fill-opacity="1" fill-rule="evenodd"/><path fill="#000000" d="M 186.085938 186.132812 C 186.085938 183.304688 183.789062 181.007812 180.960938 181.007812 L 139.570312 181.007812 C 136.738281 181.007812 134.445312 183.304688 134.445312 186.132812 L 134.445312 222.351562 C 134.445312 225.179688 136.738281 227.476562 139.570312 227.476562 L 180.960938 227.476562 C 183.789062 227.476562 186.085938 225.179688 186.085938 222.351562 Z M 144.695312 191.261719 L 144.695312 217.226562 L 175.835938 217.226562 L 175.835938 191.261719 Z M 144.695312 191.261719 " fill-opacity="1" fill-rule="evenodd"/><path fill="#000000" d="M 275.101562 186.132812 C 275.101562 183.304688 272.808594 181.007812 269.980469 181.007812 L 228.589844 181.007812 C 225.757812 181.007812 223.460938 183.304688 223.460938 186.132812 L 223.460938 222.351562 C 223.460938 225.179688 225.757812 227.476562 228.589844 227.476562 L 269.980469 227.476562 C 272.808594 227.476562 275.101562 225.179688 275.101562 222.351562 Z M 233.714844 191.261719 L 233.714844 217.226562 L 264.855469 217.226562 L 264.855469 191.261719 Z M 233.714844 191.261719 " fill-opacity="1" fill-rule="evenodd"/><path fill="#000000" d="M 92.957031 149.917969 C 92.957031 147.085938 90.660156 144.792969 87.832031 144.792969 L 42.386719 144.792969 C 18.9375 144.792969 -0.0742188 163.804688 -0.0742188 187.253906 C -0.0742188 216.894531 -0.0742188 253.394531 -0.0742188 253.394531 C -0.0742188 256.222656 2.21875 258.519531 5.050781 258.519531 L 87.832031 258.519531 C 90.660156 258.519531 92.957031 256.222656 92.957031 253.394531 Z M 82.707031 155.042969 L 42.386719 155.042969 C 24.597656 155.042969 10.175781 169.460938 10.175781 187.253906 L 10.175781 248.269531 L 82.707031 248.269531 Z M 82.707031 155.042969 " fill-opacity="1" fill-rule="evenodd"/><path fill="#000000" d="M 51.566406 10.175781 L 51.566406 46.441406 C 51.566406 49.269531 49.269531 51.566406 46.441406 51.566406 C 43.613281 51.566406 41.316406 49.269531 41.316406 46.441406 L 41.316406 5.050781 C 41.316406 2.21875 43.609375 -0.0742188 46.441406 -0.0742188 L 294.785156 -0.0742188 C 297.617188 -0.0742188 299.910156 2.21875 299.910156 5.050781 L 299.910156 149.917969 C 299.910156 152.746094 297.617188 155.042969 294.785156 155.042969 L 149.917969 155.042969 C 147.089844 155.042969 144.792969 152.746094 144.792969 149.917969 C 144.792969 147.089844 147.089844 144.792969 149.917969 144.792969 L 289.660156 144.792969 L 289.660156 10.175781 Z M 51.566406 10.175781 " fill-opacity="1" fill-rule="evenodd"/><path fill="#000000" d="M 46.441406 41.316406 C 20.765625 41.316406 -0.0742188 62.15625 -0.0742188 87.832031 C -0.0742188 113.503906 20.765625 134.347656 46.441406 134.347656 C 72.113281 134.347656 92.957031 113.503906 92.957031 87.832031 C 92.957031 62.15625 72.113281 41.316406 46.441406 41.316406 Z M 46.441406 51.566406 C 66.457031 51.566406 82.707031 67.816406 82.707031 87.832031 C 82.707031 107.847656 66.457031 124.097656 46.441406 124.097656 C 26.425781 124.097656 10.175781 107.847656 10.175781 87.832031 C 10.175781 67.816406 26.425781 51.566406 46.441406 51.566406 Z M 46.441406 51.566406 " fill-opacity="1" fill-rule="evenodd"/><path fill="#000000" d="M 91.457031 153.542969 L 174.234375 70.761719 C 176.238281 68.757812 176.238281 65.511719 174.234375 63.511719 C 172.238281 61.511719 168.988281 61.511719 166.988281 63.511719 L 84.207031 146.292969 C 82.207031 148.292969 82.207031 151.542969 84.207031 153.542969 C 86.207031 155.539062 89.457031 155.539062 91.457031 153.542969 Z M 91.457031 153.542969 " fill-opacity="1" fill-rule="evenodd"/></svg>